<svg xmlns="http://www.w3.org/2000/svg"><defs><font id="boxicons" horiz-adv-x="1024"><font-face units-per-em="1024" ascent="960" descent="-64"/><glyph horiz-adv-x="512"/><glyph unicode="" glyph-name="bxl-500px" d="M314.837 328.917c.171-.427 4.181-11.477 6.443-16.896 12.587-29.739 30.677-56.576 53.675-79.573s49.792-41.088 79.616-53.717c30.933-13.056 63.744-19.669 97.536-19.669s66.603 6.613 97.493 19.669c29.824 12.629 56.619 30.72 79.659 53.717 22.912 22.997 41.045 49.835 53.632 79.616 13.141 30.891 19.669 63.701 19.669 97.493 0 33.835-6.528 66.688-19.669 97.579-12.587 29.824-30.72 56.533-53.632 79.531-23.04 23.04-49.835 41.088-79.659 53.717-30.891 13.056-63.659 19.669-97.493 19.669-34.219 0-68.437-6.784-98.901-19.669-24.32-10.283-65.536-36.779-89.685-61.696l-.085-.085v206.165h346.325c12.587.128 12.587 17.792 12.587 23.467 0 5.845 0 23.424-12.629 23.595H335.234c-10.197 0-16.555-8.491-16.555-16.384V525.27c0-9.429 11.648-16.171 22.485-18.517 21.163-4.437 26.027 2.261 31.232 9.472l.64.896c7.979 11.733 32.725 36.608 32.896 36.821 38.613 38.656 90.197 59.861 145.323 59.861 54.784 0 106.24-21.205 144.811-59.861 38.741-38.613 60.075-89.941 60.075-144.427 0-54.613-21.248-105.941-59.733-144.427-38.059-38.059-91.179-59.861-145.749-59.861-36.949 0-72.619 9.899-103.253 28.501l.171 176.512c0 23.552 10.155 49.109 27.307 68.437 19.584 22.059 46.549 34.261 75.861 34.261 28.459 0 55.083-10.837 74.837-30.464 19.627-19.413 30.464-45.397 30.464-73.003 0-59.051-46.379-105.216-105.557-105.216-11.435 0-32.128 4.992-32.981 5.248-11.989 3.584-17.067-13.013-18.731-18.56-6.443-20.992 3.285-25.173 5.205-25.771 19.115-5.888 31.616-6.997 47.957-6.997 83.584 0 151.509 68.011 151.509 151.595 0 82.901-67.925 150.443-151.381 150.443-40.917 0-79.36-15.659-108.203-44.075-27.477-26.965-43.221-63.061-43.221-98.859v-.896c-.171-4.48-.171-110.208-.213-144.981l-.213.256c-15.701 17.365-31.189 43.904-41.515 71.168-4.139 10.667-13.184 8.789-25.643 4.949-5.419-1.707-21.931-6.784-18.304-18.688l.085-.171zm178.006 41.472c.085-5.035 4.736-9.515 7.467-12.203l.896-.811c4.736-4.693 9.259-6.997 13.44-6.997 3.456 0 5.547 1.579 6.315 2.304 2.133 1.963 25.771 25.941 28.075 28.245l26.368-26.368c2.475-2.731 5.12-4.139 8.192-4.181 4.267 0 8.832 2.475 13.653 7.424 11.392 11.605 5.717 17.92 2.944 20.907l-26.795 26.88 27.947 28.075c6.144 6.613.725 13.653-4.736 19.029-7.808 7.851-15.317 9.813-20.224 5.419l-27.733-27.819-28.032 28.075c-1.493 1.408-3.371 2.176-5.461 2.176-3.712 0-8.149-2.56-13.141-7.552-8.619-8.576-10.496-14.549-6.016-19.328l28.032-27.989-27.861-27.947c-2.176-2.304-3.371-4.779-3.328-7.339zm61.184 379.35c-44.928 0-92.629-9.003-127.659-24.149-3.797-1.451-6.016-4.523-6.443-8.747-.469-3.968.555-9.216 3.243-16.085 2.176-5.589 7.979-20.395 19.157-16.043 35.925 13.653 75.563 21.248 111.701 21.248 40.96 0 80.725-8.021 118.101-23.808 29.696-12.629 57.771-30.763 88.235-57.216 2.219-1.963 4.523-2.901 7.04-2.901 5.888 0 11.563 5.845 16.469 11.349 8.149 9.131 13.696 16.725 5.76 24.277-29.184 27.563-61.056 48.171-100.437 64.853-42.795 18.091-88.235 27.221-135.168 27.221zm241.834-554.07c-5.419 5.376-10.027 8.491-14.08 9.728-4.053 1.152-7.68.299-10.539-2.517l-2.688-2.645c-27.776-27.819-60.16-49.664-96.213-64.939-37.333-15.787-77.013-23.851-117.888-23.851-40.96 0-80.597 8.021-117.888 23.851-36.096 15.275-68.437 37.12-96.299 64.939-28.971 28.971-50.816 61.355-64.896 96.213-13.739 34.005-18.261 59.563-19.712 68.096-.171.768-.213 1.323-.384 1.749-1.877 9.899-10.965 10.624-24.064 8.619-5.419-.811-22.059-3.328-20.437-15.275l.085-.256c4.437-27.563 12.075-54.699 22.997-80.512 17.536-41.429 42.624-78.635 74.624-110.549 31.829-31.915 69.077-57.045 110.507-74.539 42.923-18.176 88.448-27.392 135.467-27.392 46.976 0 92.459 9.216 135.339 27.435 41.515 17.536 78.677 42.624 110.635 74.539.085.043 1.792 1.792 2.773 2.816 3.541 3.84 6.571 10.581-7.339 24.491z"/><glyph unicode="" glyph-name="bxl-adobe" d="M896 108.117v679.765H612.096zM128 787.883V108.118l284.075 679.765zm259.925-542.976h132.437l54.101-136.747h118.528L512.127 537.429z"/><glyph unicode="" glyph-name="bxl-airbnb" d="M512.043 247.083c-43.221 54.229-68.651 101.803-77.141 142.507-8.405 32.811-5.12 59.093 9.301 78.848 15.232 22.699 37.973 33.749 67.797 33.749s52.523-11.051 67.797-33.963c14.293-19.541 17.877-45.867 9.173-78.848-9.301-41.557-34.688-89.045-77.141-142.549l.213.256zm307.029-36.48c-5.973-39.851-33.067-72.875-70.4-88.96-71.979-31.317-143.317 18.645-204.331 86.443 100.907 126.336 119.595 224.768 76.245 288.341-25.429 36.48-61.824 54.229-108.544 54.229-94.123 0-145.877-79.659-125.525-172.117 11.776-50.048 43.221-106.923 93.269-170.496-31.36-34.688-61.099-59.349-87.339-74.581-20.395-11.008-39.851-17.835-58.453-19.456-85.675-12.757-152.832 70.272-122.325 155.989 4.267 11.051 12.672 31.317 27.051 62.763l.811 1.664c46.805 101.632 103.68 217.088 169.003 345.173l1.664 4.267 18.56 35.669c14.421 26.283 20.352 38.059 43.264 52.523 11.008 6.699 24.576 10.027 39.851 10.027 30.507 0 54.229-17.835 64.469-32.128 5.035-7.68 11.051-17.877 18.603-30.549l17.877-34.773 2.56-5.077c65.28-128.043 122.155-243.285 168.747-345.131l.853-.811 17.109-39.04 10.112-24.448c7.808-19.584 9.429-39.04 6.827-59.435l.043-.085zm38.955 76.416c-5.931 18.688-16.128 40.661-28.8 66.944v.939C768.896 483.03 712.79 598.187 659.584 701.697L656 706.86c-37.931 77.824-65.109 124.544-144 124.544-77.952 0-111.104-54.187-144.939-124.672l-2.603-5.077c-53.376-103.509-109.397-218.795-169.6-346.88v-1.664l-17.835-38.997c-6.741-16.128-10.112-24.533-11.051-27.136-43.179-118.699 45.824-222.976 153.557-222.976.896 0 4.224 0 8.448.896h11.861c56.021 6.784 113.664 42.368 172.16 106.027 58.496-63.573 116.267-99.243 172.075-106.027h11.904c4.267-.896 7.68-.896 8.533-.896 107.733-.085 196.693 104.277 153.515 223.019z"/><glyph unicode="" glyph-name="bxl-algolia" d="M519.552 573.483c-84.181 0-152.576-68.523-152.576-152.917s68.437-152.96 152.576-152.96c84.437 0 152.533 68.565 152.533 152.96 0 84.352-68.352 152.917-152.533 152.917zm107.435-96.768l-100.949-52.437c-2.987-1.664-6.528.725-6.528 3.968v114.005h.043c0 2.56 2.304 4.437 4.651 4.437 43.563-1.621 83.157-25.728 104.619-63.659 1.195-2.347.469-5.163-1.835-6.315zM792.661 832H228.736C173.013 832 128 786.731 128 731.051V164.566c0-55.936 45.312-101.163 100.736-101.163h563.925c55.723 0 100.736 45.44 100.736 101.205v566.187c0 55.936-45.269 101.205-100.736 101.205zM446.549 686.763c-.043 18.389 14.891 33.323 33.237 33.323h77.44c18.347 0 33.195-14.933 33.195-33.323v-26.368c0-.384-.043-.768-.128-1.152a4.52 4.52 0 00-5.461-3.285c-21.205 5.845-43.136 8.832-65.067 8.832a242.21 242.21 0 01-67.456-9.557c-2.987-.683-5.803 1.408-5.803 4.437v27.093zM302.08 576.299c-13.013 13.013-12.971 34.091.043 47.061l15.829 15.829c.043.043.085.043.085.085 13.013 12.971 33.963 12.885 46.891-.085l13.227-13.269c1.835-2.133 1.621-5.419-.725-6.784a241.243 241.243 0 01-29.952-25.643 248.333 248.333 0 01-25.344-29.824c-1.877-2.091-4.864-2.56-6.955-.469l-13.056 13.056s0 .043-.043.043zM519.552 203.52c-119.552 0-216.491 96.981-216.491 217.045 0 120.021 96.939 217.259 216.491 217.259 119.765 0 216.491-96.939 216.491-217.003 0-120.107-96.939-217.301-216.491-217.301z"/><glyph unicode="" glyph-name="bxl-amazon" d="M86.485 233.685c2.603 4.181 6.656 4.48 12.331.853 129.493-75.093 270.421-112.853 422.656-112.853 101.589 0 201.813 19.072 300.843 56.832l11.179 4.992c4.907 2.176 8.32 3.584 10.411 4.651 8.064 3.157 13.909 1.579 18.688-4.651 4.352-6.101 3.243-11.904-4.267-17.067-9.088-6.741-21.333-14.592-35.84-23.253-44.245-26.411-93.995-46.848-148.992-61.483-54.485-14.336-108.331-21.675-160.853-21.675-80.597 0-157.013 14.08-229.077 42.24-71.936 28.245-136.021 68.011-193.323 119.339-3.584 2.603-5.333 5.248-5.333 7.851 0 1.664.683 3.157 1.749 4.651l-.171-.427zm233.771 221.398c0 35.84 8.832 66.347 26.411 91.819 17.664 25.259 41.685 44.416 72.661 57.429 28.416 11.989 62.507 20.48 103.68 25.685 13.909 1.579 36.736 3.669 68.267 6.187v13.227c0 32.981-3.584 55.424-10.581 66.731-10.752 15.317-27.733 23.083-51.328 23.083h-6.4c-17.067-1.664-31.829-6.912-44.331-16.341-12.501-9.6-20.48-22.485-24.064-39.083-2.091-10.667-7.339-16.512-15.403-18.176l-89.813 11.264c-8.917 2.176-13.269 6.4-13.269 13.909 0 1.579.256 3.157.768 5.248 8.917 45.995 30.507 80.256 64.853 102.571 34.731 21.931 74.752 34.731 120.661 37.333h19.243c58.837 0 105.344-15.403 138.411-45.909 4.907-5.248 9.685-10.667 14.507-16.981 4.267-5.931 8.021-11.264 9.984-16.085 2.688-4.736 5.419-11.733 6.997-20.267 2.176-9.088 3.755-15.019 4.821-18.176.981-3.669 2.176-10.667 2.731-21.931.256-11.179.683-17.493.683-19.669V488.962c0-13.397 2.091-25.685 5.845-36.907 3.755-11.093 7.424-19.243 11.179-24.021l18.261-23.936c3.072-4.907 4.736-9.173 4.736-12.928 0-4.352-2.091-8.021-6.315-11.093-42.752-37.419-66.261-57.685-69.931-60.928-5.845-4.821-13.355-5.333-22.4-1.664-6.912 6.016-13.397 11.819-18.731 17.664l-11.008 12.416c-2.176 2.688-6.016 7.424-11.349 15.019l-10.667 15.488c-28.843-31.573-57.088-51.413-85.419-59.435-17.664-5.333-38.997-8.021-65.237-8.021-39.509 0-72.576 12.16-98.261 36.821-25.515 24.576-38.4 59.264-38.4 104.661l-1.835 2.688.043.299zm133.589 15.658c0-20.267 4.992-36.352 15.147-48.597 10.069-12.16 24.021-18.261 41.173-18.261 1.493 0 3.755.341 6.827.768 3.328.512 4.736.853 6.016.853 21.845 5.675 38.485 19.669 50.731 41.899 5.845 9.899 10.069 20.565 12.757 32.341 3.243 11.435 4.267 21.077 4.736 28.416.683 7.083.683 19.328.683 35.84v19.243c-29.995 0-52.907-2.091-68.437-6.315-45.355-12.928-68.437-41.685-68.437-86.571l-1.237.683v-.299zm326.23-250.24c1.067 2.176 2.688 3.925 4.651 6.101 12.843 8.576 25.429 14.592 37.419 17.749 19.584 4.821 38.741 7.936 57.344 8.576 4.992.427 9.984 0 14.763-1.067 22.997-2.176 37.248-6.016 41.685-11.648 2.261-3.328 3.157-8.149 3.157-13.995v-5.333c0-18.176-4.992-39.509-14.848-64.085s-23.595-44.416-41.088-59.819c-2.603-2.091-4.907-3.157-6.997-3.157-1.067 0-2.176 0-3.157.427-3.243 1.579-3.84 4.267-2.347 8.576 19.243 44.843 28.672 76.245 28.672 93.909 0 5.419-1.067 9.685-3.157 12.331-5.077 5.845-19.499 9.259-43.52 9.259-8.661 0-18.901-.683-31.019-1.664-12.928-1.749-24.832-3.328-35.584-4.907-3.157 0-5.248.597-6.4 1.579-1.067 1.067-1.323 1.664-.768 2.731 0 .597.256 1.067.768 2.261v2.091l.427.085z"/><glyph unicode="" glyph-name="bxl-android" d="M782.677 588.373c-30.165 0-54.571-24.405-54.571-54.528v-193.28c0-30.251 24.405-54.613 54.571-54.613s54.571 24.363 54.571 54.613v193.28c0 30.123-24.405 54.528-54.571 54.528zm-541.354 0c-30.165 0-54.571-24.405-54.571-54.528v-193.28c0-30.251 24.405-54.613 54.571-54.613s54.571 24.363 54.571 54.613v193.28c.043 30.123-24.405 54.528-54.571 54.528zm379.264 162.518l32.768 59.221c4.096 7.125 1.408 16.085-5.675 20.053-7.168 4.011-16.171 1.408-20.096-5.76l-33.664-60.587c-25.088 10.027-52.736 15.701-81.92 15.701s-56.832-5.632-81.92-15.659l-33.664 60.501c-3.84 7.168-12.843 9.771-20.096 5.76-7.083-3.968-9.685-12.928-5.675-20.053l32.768-59.221c-59.008-33.621-98.432-93.739-98.432-162.475 0-.469 0-.896.085-1.451-.085-.256-.085-.555-.085-.811v-.043l413.995.043v2.262c.043 68.736-39.381 128.811-98.389 162.517zm-204.16-83.968c-8.064 0-14.677 6.656-14.677 14.763s6.571 14.763 14.677 14.763c8.149 0 14.848-6.613 14.848-14.763-.043-8.107-6.699-14.763-14.848-14.763zm191.146 0c-8.149 0-14.763 6.656-14.763 14.763s6.571 14.763 14.763 14.763c8.064 0 14.677-6.613 14.677-14.763 0-8.107-6.571-14.763-14.677-14.763zm-302.592-394.71c0-27.563 22.4-49.963 50.091-49.963h25.003V119.807c0-30.165 24.491-54.528 54.571-54.528s54.571 24.363 54.571 54.528V222.25H534.7V119.807c0-30.165 24.405-54.528 54.485-54.528 30.251 0 54.656 24.363 54.656 54.528V222.25h25.003c27.648 0 50.091 22.357 50.091 49.963v302.592H304.983V272.213z"/><glyph unicode="" glyph-name="bxl-angular" d="M447.275 427.435h129.451l-64.725 155.776zM512 828.843L157.397 702.379 211.498 233.6 511.999 67.2 812.5 233.6l54.101 468.779-354.603 126.464zM733.312 247.68h-82.645L606.08 358.869H417.92L373.333 247.68h-82.645L512 744.661 733.312 247.68z"/><glyph unicode="" glyph-name="bxl-apple" d="M839.04 242.731c-12.245-28.331-26.752-54.4-43.563-78.379-22.912-32.725-41.728-55.339-56.149-67.925-22.4-20.565-46.464-31.147-72.192-31.744-18.432 0-40.704 5.248-66.645 15.915-26.027 10.624-49.92 15.829-71.808 15.829-22.912 0-47.488-5.205-73.813-15.829-26.283-10.667-47.531-16.256-63.787-16.768-24.619-1.067-49.237 9.771-73.771 32.597-15.659 13.653-35.243 37.12-58.752 70.315-25.173 35.371-45.867 76.544-62.08 123.349-17.365 50.645-26.069 99.627-26.069 147.072 0 54.315 11.733 101.205 35.243 140.459 18.517 31.573 43.093 56.448 73.813 74.709 30.763 18.304 64.043 27.648 99.84 28.245 19.627 0 45.355-6.059 77.227-18.005s52.352-18.005 61.269-18.005c6.741 0 29.397 7.125 67.968 21.248 36.395 13.099 67.115 18.517 92.288 16.384 68.267-5.504 119.509-32.384 153.6-80.853-61.013-36.992-91.179-88.747-90.581-155.179.512-51.755 19.328-94.805 56.192-128.981 16.725-15.872 35.371-28.117 56.107-36.821a629.819 629.819 0 00-14.336-37.632zM682.581 858.453c0-40.533-14.848-78.421-44.331-113.451-35.669-41.643-78.763-65.749-125.483-61.952-.597 4.864-.896 9.984-.896 15.36 0 38.955 16.896 80.597 47.061 114.688 15.019 17.237 34.133 31.616 57.301 43.051 23.125 11.264 44.971 17.493 65.536 18.56.555-5.461.811-10.88.811-16.256z"/><glyph unicode="" glyph-name="bxl-audible" d="M85.547 523.179v-72.107l426.752-266.837 426.155 266.837v72.107L512.299 257.408zm594.474-95.19l62.507 40.021C692.992 540.586 608 590.719 512.299 590.719c-96.299 0-180.736-48.427-229.163-123.307 3.968 3.968 6.229 6.229 10.155 9.003 119.936 99.669 292.693 77.141 386.731-48.427zm-293.845-25.344c22.528 16.341 48.384 24.747 75.947 24.747 46.208 0 87.339-23.637 114.859-63.573l59.691 37.163c-25.899 41.088-72.021 66.432-124.416 66.432-52.309 0-98.517-26.453-126.08-64.768zM224 575.488c175.659 138.496 423.979 100.779 556.245-83.328l1.109-1.109 64.725 40.021C775.167 639.744 651.86 711.765 512.298 711.765c-138.496 0-261.803-70.955-333.867-180.693 12.971 14.592 29.269 32.043 45.568 44.416z"/><glyph unicode="" glyph-name="bxl-baidu" d="M265.259 427.264c83.797 18.005 72.235 118.272 69.845 140.245-4.096 33.621-43.861 92.672-97.749 87.936-67.755-6.016-77.696-104.107-77.696-104.107-9.216-45.227 21.973-142.08 105.6-124.075zm155.562 168.277c46.251 0 83.584 53.376 83.584 119.125 0 65.579-37.163 118.827-83.413 118.827-46.336 0-83.883-52.992-83.883-118.827s37.547-119.125 83.84-119.125zm199.424-7.936c62.037-8.32 101.547 57.813 109.568 107.947 8.021 49.749-32.171 107.861-75.776 117.888-43.989 10.112-98.261-60.203-103.723-105.984-5.803-56.235 8.021-112.085 69.717-120.021zm245.163-84.352c0 23.979-19.627 96.128-93.44 96.128-73.771 0-83.84-68.096-83.84-116.309 0-45.952 3.797-109.781 95.872-107.861 91.648 2.219 81.621 104.021 81.621 128.085zm-93.141-209.962s-95.872 74.197-151.765 154.155c-75.776 118.101-183.637 69.973-219.477 10.197-36.053-60.501-91.861-98.389-99.797-108.544-8.021-9.899-115.584-68.096-91.605-174.037C233.644 69.121 317.484 70.998 317.484 70.998s61.696-6.059 133.675 9.984c71.936 16 133.547-3.883 133.547-3.883s167.253-56.192 213.547 51.712c45.739 108.245-26.027 164.139-26.027 164.139z"/><glyph unicode="" glyph-name="bxl-behance" d="M332.928 715.477c25.131 0 47.744-2.176 68.48-6.613 20.608-4.395 38.187-11.648 53.035-21.675 14.635-10.027 26.069-23.339 34.304-40.064 7.979-16.512 11.947-37.163 11.947-61.568 0-26.453-5.973-48.555-17.963-66.176-12.075-17.664-29.867-32.128-53.589-43.307 32.299-9.344 56.235-25.685 72.107-48.896 15.957-23.424 23.765-51.456 23.765-84.309 0-26.667-5.077-49.579-15.275-68.821-10.24-19.541-24.277-35.371-41.557-47.531-17.408-12.331-37.376-21.376-59.691-27.307-22.144-5.845-45.099-8.789-68.651-8.789H85.333v525.056h247.595zm-14.976-212.138c20.48 0 37.461 4.864 50.859 14.72 13.312 9.728 19.755 25.771 19.755 47.744 0 12.203-2.176 22.272-6.443 30.165-4.395 7.808-10.325 13.952-17.792 18.261-7.424 4.48-15.744 7.509-25.472 9.173-9.515 1.877-19.499 2.603-29.739 2.603H200.96V503.338h116.992zm6.443-223.531c11.392 0 22.229.981 32.427 3.285 10.283 2.219 19.413 5.803 27.179 11.136 7.765 5.12 14.165 12.075 18.773 20.949 4.651 8.789 6.912 20.267 6.912 34.048 0 27.051-7.637 46.293-22.741 57.941-15.147 11.52-35.456 17.237-60.331 17.237H200.961v-144.64h123.435zm365.44 1.749c15.659-15.275 38.229-22.955 67.584-22.955 21.035 0 39.211 5.333 54.528 15.915 15.104 10.624 24.32 21.973 27.861 33.707h91.947c-14.763-45.739-37.163-78.421-67.797-98.091-30.251-19.755-67.072-29.568-110.08-29.568-29.952 0-56.917 4.821-81.067 14.379-24.192 9.685-44.459 23.211-61.397 40.875-16.597 17.749-29.44 38.699-38.613 63.36-9.088 24.491-13.653 51.627-13.653 81.024 0 28.416 4.736 54.997 14.037 79.531 9.515 24.619 22.571 45.867 39.851 63.701 17.28 17.92 37.76 32.043 61.611 42.411 23.851 10.283 50.133 15.445 79.275 15.445 32.171 0 60.288-6.229 84.437-18.773 24.021-12.459 43.776-29.312 59.307-50.432 15.488-21.035 26.539-45.141 33.408-72.149 6.869-26.965 9.259-55.125 7.296-84.608H663.981c.043-30.037 10.155-58.496 25.856-73.771zM809.813 481.28c-12.416 13.739-33.408 21.163-59.093 21.163-16.683 0-30.464-2.773-41.557-8.491-10.837-5.675-19.669-12.672-26.453-20.949-6.699-8.405-11.307-17.28-13.995-26.795-2.645-9.259-4.267-17.621-4.736-25.045h169.899c-2.475 26.624-11.605 46.293-24.064 60.117zM642.645 680.235h212.864v-51.84H642.645z"/><glyph unicode="" glyph-name="bxl-bing" d="M243.627 832l153.301-53.931v-539.52l215.936 124.544L507.051 412.8l-66.816 166.272L780.459 459.52V285.739L397.142 64.598l-153.387 85.333L243.627 832z"/><glyph unicode="" glyph-name="bxl-bitcoin" d="M509.995 583.723l-23.339-93.44c26.411-6.571 107.904-33.451 121.088 19.456 13.739 55.083-71.381 67.371-97.749 73.984zm-35.072-140.63l-25.728-103.04c31.701-7.893 129.579-39.296 144.043 18.816 15.147 60.672-86.571 76.331-118.315 84.224zm140.373 418.816c-228.565 56.96-459.947-82.133-516.907-310.699C41.386 322.73 180.48 91.263 408.874 34.261c228.565-56.96 460.075 82.091 516.992 310.656 57.003 228.523-82.091 459.989-310.571 516.992zm84.949-353.066c-6.187-41.557-29.269-61.653-59.819-68.736 42.027-21.845 63.36-55.381 43.051-113.536-25.259-72.149-85.248-78.251-165.12-63.147l-19.371-77.653-46.763 11.648 19.072 76.544c-12.075 3.029-24.491 6.229-37.333 9.728l-19.157-76.971-46.72 11.733 19.371 77.781c-10.965 2.816-22.059 5.803-33.365 8.619L293.12 320l23.296 53.589s34.475-9.173 34.005-8.491c13.269-3.285 19.115 5.333 21.419 11.136l30.677 122.667c1.707-.427 3.371-.853 4.907-1.237-1.877.768-3.541 1.237-4.864 1.579l21.845 87.595c.555 9.984-2.816 22.528-21.803 27.264.768.469-34.005 8.448-34.005 8.448l12.416 50.005 64.597-16.128-.043-.213c9.685-2.432 19.669-4.736 29.867-7.04l19.157 76.885 46.805-11.648-18.773-75.349c12.544-2.859 25.216-5.76 37.504-8.832l18.688 74.88 46.805-11.648-19.157-76.885c59.051-20.437 102.229-50.987 93.781-107.733z"/><glyph unicode="" glyph-name="bxl-blogger" d="M894.037 504.875c-3.072 13.739-11.605 26.496-21.419 31.787-2.987 1.664-22.272 3.755-42.837 4.651-34.517 1.536-38.315 2.219-49.152 8.576-17.28 10.112-22.016 21.035-22.101 50.645-.085 56.619-23.637 109.184-70.229 156.587-33.109 33.835-70.187 56.704-112.384 69.504-10.069 3.072-32.768 4.139-108.587 5.035-118.912 1.408-145.28-1.024-185.856-17.152-74.581-29.739-128.341-92.416-147.84-172.8-3.712-15.061-4.395-39.253-5.291-178.219-1.067-174.08.171-199.68 11.008-234.155 9.045-28.501 18.133-45.952 36.736-70.699 35.627-47.275 88.875-81.365 142.251-91.008 25.387-4.565 338.389-5.76 370.475-1.365 55.723 7.595 99.456 29.952 140.501 71.851 29.611 30.293 48.171 63.104 60.331 106.624 4.992 18.091 5.419 26.88 6.357 132.992.725 80.128.085 117.675-1.963 127.147zM341.632 614.059c13.355 13.483 17.024 14.037 100.864 14.037 75.264 0 77.739-.171 88.789-5.717 16-8.064 22.955-19.456 22.955-37.547 0-16.384-6.528-27.861-21.035-37.077-7.851-4.907-12.501-5.248-86.229-5.675-45.525-.299-81.749.555-87.168 2.048-28.544 7.851-39.168 48.768-18.176 69.931zm328.789-342.912l-25.472-4.181-132.864-1.493c-116.736-1.408-149.803.768-155.819 3.413-12.288 5.291-23.637 20.139-25.685 33.28-1.792 12.459 4.437 29.696 14.08 38.4 12.16 10.965 17.451 11.349 166.869 11.52 153.685.085 152.875.128 167.467-13.44 20.565-19.2 16.256-53.376-8.576-67.499z"/><glyph unicode="" glyph-name="bxl-bootstrap" d="M768.085 832.128H255.957c-70.656-.213-127.872-57.429-128.085-128.128V191.915c0-70.357 57.685-128.043 128.085-128.043h512.128c70.357 0 128.043 57.685 128.043 128.043V704c0 70.443-57.685 128.128-128.043 128.128zm-69.973-539.605c-6.485-15.36-16.597-29.013-29.568-39.552-13.44-10.795-30.507-19.755-51.456-26.197-20.907-6.443-45.824-9.771-74.667-9.771H336.554v448.213h217.728c40.235 0 72.533-9.088 96.725-27.563 24.277-18.603 36.437-46.165 36.437-83.541 0-22.528-5.547-41.941-16.597-57.899-11.051-15.915-26.88-28.331-47.403-37.035v-1.451c27.392-5.76 48.512-18.688 62.464-38.912 13.952-20.181 21.035-45.611 21.035-76.331 0-17.28-3.328-33.621-9.6-48.939l.853-.896v-.128zm-88.917 110.464c-13.184 12.032-31.531 17.877-55.339 17.877H415.445V281.088H554.24c23.637 0 42.283 6.144 55.381 18.56 13.141 12.331 19.797 29.909 19.797 52.437-.213 22.101-6.656 39.211-19.797 50.901h-.427zm-19.243 90.41c12.757 10.709 18.944 26.155 18.944 46.251 0 22.443-5.589 38.485-16.939 47.616-11.264 9.131-27.563 13.909-48.896 13.909H415.018V477.525h128.043c18.603-.043 34.56 5.419 46.891 15.872z"/><glyph unicode="" glyph-name="bxl-chrome" d="M458.334 872.956c-59.917-7.791-130.543-34.458-182.669-69.376-43.085-28.335-102.251-86.208-98.5-96.043 8.209-21.376 139.959-241.417 142.042-237.291 1.626 2.833 4.083 11.874 5.291 20.915 10.667 59.085 60.791 115.332 123.584 138.752 24.252 9.459 29.124 9.459 234.458 11.499l209.792 2.044-16.832 27.541c-59.123 96.457-150.293 162.957-264.418 192.542-31.206 8.209-119.872 13.542-152.747 9.417zM136.499 652.083c-19.29-34.082-41.916-103.04-47.206-143.292-25.084-182.293 66.918-358.417 229.5-440.085 38.165-19.29 92.749-37.79 116.582-39.834l15.168-1.207 71.458 121.084c39.002 66.5 70.583 121.54 69.79 122.334-.832.832-9.873-1.626-20.54-5.333-66.918-22.583-144.499-3.665-194.999 47.625-18.044 18.082-42.709 57.916-121.126 193.792-54.208 94.042-99.75 171.209-101.419 171.209-1.207 0-9.041-11.917-17.207-26.291zm509.875-67.708c52.169-53.001 70.626-128.124 47.625-195.874-3.665-11.085-51.708-96.875-106.709-191.334-55.04-93.999-100.207-172.002-100.207-173.21 0-4.915 56.666-2.458 92.791 3.708C764.207 59.247 902.997 198.417 932.54 380.749c11.085 66.5 7.002 124.791-13.124 192.124l-10.667 35.708H622.584l23.791-24.205zm-193.749 10.249c-43.123-18.082-72.666-48.457-88.708-91.541-7.377-19.332-8.623-30.417-7.377-60.749 1.25-32.043 2.876-41.084 14.793-64.499 15.625-32 41.041-56.666 74.709-72.623 19.708-9.459 27.917-10.709 65.668-10.709 38.208 0 45.999 1.25 66.543 11.085 30.374 13.956 62.374 45.999 76.373 76.373 9.835 20.54 11.042 28.335 11.042 66.5 0 37.79-1.207 45.999-10.667 65.707-16 33.626-40.623 59.123-72.666 74.709-24.209 11.917-31.625 13.542-66.5 14.793-33.668.828-42.253-.422-63.211-9.045z"/><glyph unicode="" glyph-name="bxl-codepen" d="M931.755 599.68c0 .043-.043.043 0 0-.085.043-.085.085-.128.171-.043 0-.043.043-.043.043v.043a34.51 34.51 0 01-10.027 9.728L530.56 869.078c-10.88 7.467-27.477 7.467-38.315 0L101.162 609.537c-3.968-2.432-7.467-5.845-10.155-9.856-3.968-5.973-5.803-12.672-5.675-19.285V317.569c-.128-6.528 1.707-13.184 5.589-19.115v-.043l.085-.085c.128-.256.299-.427.427-.64v-.085h.043c.043 0 .043 0 .043-.043.043 0 .043-.043.043-.043a35.09 35.09 0 019.643-9.173l391.04-259.499a33.584 33.584 0 0119.115-5.931c7.211 0 13.781 2.176 19.2 5.931L921.6 288.342c3.883 2.475 7.339 5.717 10.027 9.771 4.011 6.016 5.931 12.8 5.803 19.456v262.827c.128 6.613-1.749 13.312-5.675 19.285zM545.323 777.685l296.661-196.821-135.808-90.112L545.28 598.955v178.731zm-67.926 0V598.954L316.501 490.751 180.778 580.82l296.619 196.864zM153.344 517.504l102.187-67.84-102.187-68.736v136.576zm324.053-397.269l-296.96 196.992 136.32 91.733 160.64-106.581V120.235zm33.92 241.194L377.856 450.09l133.461 89.813 133.589-89.813-133.589-88.661zm34.006-241.194v182.187l160.683 106.581 136.235-91.733-296.917-197.035zm324.138 260.693l-102.229 68.736 102.229 67.84V380.928z"/><glyph unicode="" glyph-name="bxl-creative-commons" d="M868.437 683.563c-71.595 107.648-187.435 176.725-316.629 188.971-132.608 12.544-257.323-32.896-346.581-126.421-54.485-57.045-90.069-120.576-110.933-198.272-9.259-34.347-10.539-47.104-10.411-102.229.085-55.168 1.451-68.224 10.88-103.765C135.851 186.839 256.768 67.842 412.672 29.015c13.44-3.328 29.952-6.827 36.651-7.765 29.696-4.139 101.589-2.389 133.589 3.2 131.755 22.955 248.832 107.989 308.907 224.341 70.144 135.723 60.843 308.139-23.381 434.773zm-17.493-328.022c-34.475-127.573-139.221-224.939-271.403-252.245-206.123-42.539-406.955 113.408-419.797 326.016-8.277 137.259 74.88 275.029 202.453 335.488 48.341 22.869 87.253 31.275 146.133 31.488 56.619.171 88.064-5.632 137.515-25.429 99.157-39.723 176.896-129.707 205.483-237.781 11.989-45.227 11.776-132.395-.384-177.536zM343.125 321.92c-39.04 13.824-68.949 54.4-74.24 100.693-7.808 68.565 18.005 121.856 70.571 145.707 28.544 12.928 80.299 12.629 111.061-.683 18.688-8.107 53.803-39.808 53.803-48.597 0-1.408-12.117-8.576-26.923-15.872l-26.965-13.312-14.379 14.379c-7.979 8.021-20.267 15.488-27.691 16.896-18.475 3.499-40.619-4.736-50.645-18.773-16.597-23.296-17.707-84.139-2.048-108.075 8.149-12.416 21.845-21.077 34.688-22.101 27.093-2.133 33.963.256 50.005 17.109l16.171 16.981 20.821-11.477c11.477-6.315 22.485-13.013 24.533-14.805 6.997-6.315-25.259-39.253-51.157-52.224-22.059-11.051-28.971-12.501-57.941-12.203-18.133.256-40.491 3.157-49.664 6.357zm248.15 0c-38.443 13.653-67.883 52.949-74.197 99.2-9.173 66.944 17.877 123.221 70.571 147.2 30.592 13.824 82.517 12.8 113.536-2.389 19.2-9.429 51.243-38.869 51.243-47.104 0-1.451-12.587-8.661-27.904-16.085l-27.904-13.525-14.549 15.787c-12.971 14.165-16.427 15.744-34.219 15.744-24.576 0-40.32-9.6-48.853-29.781-7.68-18.048-8.576-62.336-1.835-82.517 13.824-41.003 64.213-50.688 92.8-17.877l12.971 14.763 24.747-12.544c13.653-6.869 24.832-13.611 24.832-15.019 0-9.344-32-39.168-53.589-49.92-22.059-11.051-28.971-12.501-57.941-12.245-18.133.213-40.491 3.115-49.707 6.315z"/><glyph unicode="" glyph-name="bxl-css3" d="M178.859 825.899h666.24l-60.587-684.117L511.275 64.47l-271.744 77.355L178.859 825.9zm542.208-139.99l-418.133.085 6.741-83.157 321.237-.085-8.064-86.187H412.16l7.637-81.621h196.139l-11.605-111.787L512 297.642l-93.739 25.728-6.016 66.944h-82.773l9.216-122.325L512 214.016l170.453 48.512 38.613 423.381z"/><glyph unicode="" glyph-name="bxl-dailymotion" d="M578.176 469.973c-56.107 0-99.328-45.611-99.328-99.499 0-56.064 43.221-98.688 104.149-98.688l-.512-.085c50.859 0 93.568 41.941 93.568 97.28.043 57.557-42.709 100.992-97.877 100.992zM128 832V64h768v768H128zm662.187-665.813H675.755v45.141c-35.2-34.56-71.125-47.061-118.869-47.061-48.725 0-90.624 15.829-125.739 47.531-46.336 40.789-70.315 95.019-70.315 157.909 0 57.643 22.357 109.269 64.299 149.589 37.461 36.651 83.029 55.381 133.931 55.381 48.64 0 86.101-16.427 112.939-50.859v175.147l118.187 24.448V166.186z"/><glyph unicode="" glyph-name="bxl-deviantart" d="M749.653 832H610.09l-13.909-14.08-65.877-125.525-20.736-13.952H274.432V486.656h129.28l11.52-13.952-140.8-269.013V64.043h139.605l13.952 14.08 65.835 125.568L514.56 217.6h235.136v191.787h-129.28l-11.477 14.037 140.757 268.928L749.653 832z"/><glyph unicode="" glyph-name="bxl-digg" d="M716.928 584.533V294.357h136.533v-34.091H716.928v-68.352h221.867v392.619H716.928zm-256 0V294.357h136.491v-34.091H460.928v-68.352h221.824v392.619H460.928zm-239.061 119.51V584.534H85.334V294.358h221.909v409.685h-85.376zm204.842-119.51h-85.333V294.357h85.333v290.176zm426.752-221.866h-51.2V516.31h51.2V362.667zm-631.594 0h-51.2V516.31h51.2V362.667zm375.552 0h-51.2V516.31h51.2V362.667zm-170.71 341.376h-85.333V618.71h85.333v85.333z"/><glyph unicode="" glyph-name="bxl-digitalocean" d="M512.213 21.675v165.419c175.104 0 310.955 173.568 243.797 357.888-24.704 67.712-79.317 122.325-147.499 147.029-184.277 66.688-357.931-68.693-357.931-243.797H85.673c0 279.083 269.867 496.725 562.517 405.291 127.616-40.107 229.675-141.696 269.355-269.355 91.349-292.608-126.293-562.475-405.333-562.475zm.512 164.394H347.818v164.949h164.907zM347.819 59.819H221.568V186.07h126.251zm-126.251 126.25H115.669V292.01h105.899V186.069z"/><glyph unicode="" glyph-name="bxl-discord" d="M409.301 491.904c-23.125 0-41.344-20.267-41.344-45.013 0-24.661 18.645-45.013 41.344-45.013 23.083 0 41.301 20.352 41.301 45.013.469 24.789-18.219 45.013-41.301 45.013zm147.968 0c-23.125 0-41.344-20.267-41.344-45.013 0-24.661 18.645-45.013 41.344-45.013 23.083 0 41.301 20.352 41.301 45.013-.043 24.789-18.219 45.013-41.301 45.013zM754.261 832H211.072C165.291 832 128 794.709 128 748.501V200.49c0-46.208 37.291-83.499 83.072-83.499H670.72l-21.547 75.051 51.925-48.256 49.024-45.397 87.211-77.056v727.168c0 46.208-37.291 83.499-83.072 83.499zM597.76 302.635s-14.592 17.408-26.709 32.896c53.077 15.019 73.344 48.213 73.344 48.213-16.64-10.923-32.427-18.688-46.635-23.979-20.267-8.448-39.68-14.123-58.752-17.408-38.912-7.253-74.581-5.248-105.003.427-23.083 4.48-42.923 10.965-59.563 17.493-9.301 3.627-19.499 8.021-29.568 13.696-1.237.896-2.432 1.237-3.627 2.048-.853.427-1.237.811-1.664 1.28-7.296 4.011-11.349 6.827-11.349 6.827s19.456-32.427 70.955-47.829c-12.16-15.36-27.179-33.664-27.179-33.664-89.557 2.859-123.563 61.611-123.563 61.611 0 130.517 58.368 236.288 58.368 236.288 58.368 43.819 113.877 42.581 113.877 42.581l4.053-4.864c-72.96-21.12-106.624-53.12-106.624-53.12s8.96 4.864 23.936 11.733c43.349 19.029 77.781 24.32 91.989 25.557 2.432.384 4.48.811 6.912.811 24.747 3.243 52.693 4.053 81.835.811 38.528-4.48 79.915-15.829 122.027-38.912 0 0-32.043 30.379-100.949 51.456l5.675 6.485s55.552 1.237 113.877-42.581c0 0 58.368-105.771 58.368-236.288 0 .043-34.432-58.709-124.032-61.568z"/><glyph unicode="" glyph-name="bxl-discourse" d="M515.285 832C305.024 832 128 663.04 128 454.699V64l387.2.427c210.261 0 380.8 175.36 380.8 383.701C896 656.512 725.333 832 515.285 832zm167.254-548.651c-69.461-66.133-172.501-83.669-260.352-44.501L268.8 204.501l42.709 136.192c-39.68 72.405-37.845 160.384 4.693 231.04 42.923 70.955 119.851 114.347 202.795 114.261v-.043h.256c96 .171 182.571-57.813 218.923-146.688 35.925-88.619 13.824-190.208-55.637-255.915z"/><glyph unicode="" glyph-name="bxl-dribbble" d="M881.493 662.187c-38.144 65.408-89.899 117.205-155.349 155.307-65.408 38.101-136.789 57.173-214.144 57.173s-148.736-19.072-214.187-57.173c-65.408-38.101-117.205-89.899-155.307-155.307S85.333 525.355 85.333 448s19.029-148.779 57.173-214.187c38.144-65.451 89.899-117.205 155.349-155.307 65.408-38.101 136.789-57.173 214.144-57.173s148.736 19.072 214.187 57.173c65.408 38.101 117.205 89.856 155.349 155.307 38.101 65.408 57.131 136.832 57.131 214.187s-19.029 148.779-57.173 214.187zM512 803.84c85.333 0 160.939-27.307 226.987-81.877-39.253-50.091-97.536-91.307-174.933-123.733-42.752 77.355-89.088 141.952-139.136 193.707 29.099 7.936 58.027 11.904 87.083 11.904zM235.093 669.867c32.171 40.405 70.656 71.936 115.669 94.72 51.712-51.243 99.2-115.2 142.507-192-85.333-25.6-175.531-38.4-270.549-38.4-24.448 0-42.923.555-55.467 1.707 13.099 48.939 35.712 93.568 67.84 133.973zM156.16 448c0 2.304.128 5.12.427 8.533s.427 6.229.427 8.533c10.837-.597 27.349-.853 49.536-.853 113.749 0 219.563 15.659 317.397 46.933 7.979-15.915 16.256-33.835 24.747-53.76-56.32-12.501-114.091-42.923-173.269-91.307s-102.357-99.285-129.664-152.747c-59.733 67.712-89.6 145.92-89.6 234.667zM512 92.16c-80.811 0-153.344 25.045-217.643 75.051C320 217.856 359.381 266.283 412.586 312.32c53.163 46.08 105.941 74.795 158.293 86.187 32.939-91.008 55.168-185.131 66.56-282.453-41.557-15.915-83.371-23.893-125.44-23.893zm302.08 168.96c-28.416-45.483-65.109-82.773-110.08-111.829-10.24 88.747-29.867 175.232-58.837 259.456 39.765 2.816 75.307 4.267 106.667 4.267 34.091 0 71.936-1.451 113.451-4.267-5.717-52.907-22.784-102.101-51.2-147.627zm-52.907 213.333c-49.493 0-95.275-2.005-137.387-5.973-10.837 27.861-20.48 50.901-29.013 69.12 88.149 38.656 150.699 85.589 187.691 140.8 51.2-60.331 79.104-129.152 83.627-206.507a2132.198 2132.198 0 01-104.917 2.56z"/><glyph unicode="" glyph-name="bxl-dropbox" d="M298.837 810.667L85.333 674.603l213.504-135.936 213.419 135.936zm426.88 0L512.256 674.603l213.461-135.936 213.461 135.936zM85.333 402.688l213.504-135.979 213.419 135.979-213.419 135.979zm640.384 135.979L512.256 402.688l213.461-135.979 213.461 135.979zm-426.88-317.27L512.256 85.333l213.461 136.064-213.461 135.936z"/><glyph unicode="" glyph-name="bxl-drupal" d="M489.557 344.747c-74.539 0-134.912-60.416-134.912-134.955 0-74.453 60.373-134.869 134.912-134.869 74.496 0 134.912 60.416 134.912 134.869 0 74.539-60.416 134.955-134.912 134.955zm167.936 25.856c39.936-41.728 64.555-98.347 64.555-160.811 0-79.104-39.467-148.651-99.627-190.72C733.738 53.333 825.984 137.131 867.2 238.464c57.088 140.288 3.84 245.803-85.291 341.547 2.816-12.288 4.395-25.259 4.395-38.315-.256-81.536-54.528-149.845-128.811-171.093zM504.875 541.397c0-57.173 46.379-103.211 103.253-103.211s103.381 46.379 103.381 103.211c0 57.045-46.336 103.125-103.125 103.125-56.875 0-103.509-46.08-103.509-103.125zM311.595 60.032c-34.005 40.448-54.443 92.715-54.443 149.76 0 119.083 89.301 217.173 204.8 230.741-19.712 28.672-31.488 63.403-31.488 100.864 0 98.261 79.573 177.579 177.963 177.579 8.149 0 16.085-.512 23.765-1.451-58.069 50.176-116.224 101.077-162.091 156.672C493.44 630.4 248.234 718.976 157.269 494.293c-60.672-150.485-5.888-336.725 154.325-434.261z"/><glyph unicode="" glyph-name="bxl-ebay" d="M299.563 443.264v175.232h42.709V510.763c21.035 25.003 49.92 32.256 78.421 32.256 47.701 0 100.736-32.171 100.736-101.675 0-8.32-.597-16.256-2.176-23.851 8.533 34.005 45.355 46.507 103.168 47.915 18.176.683 38.997.683 55.552.683v4.736c0 31.488-19.797 44.331-54.443 44.331-25.685 0-44.373-10.667-46.507-28.843h-45.397C536.447 532.224 585.087 544 627.285 544c37.931 0 71.083-9.6 86.059-36.352L697.771 537.6h50.219l73.216-146.901 73.216 146.987h44.245l-132.48-260.181H758.23l38.144 72.661-82.987 155.989c4.608-9.088 7.125-19.84 7.125-33.152v-87.68c0-12.331.384-24.491 1.451-35.755H682.24a233.648 233.648 0 00-1.621 27.264c-21.461-26.155-47.061-34.261-82.645-34.261-52.736 0-80.939 27.819-80.939 60.416 0 5.333.555 10.069 1.323 14.421-10.709-44.416-48.427-74.24-98.56-74.24-31.019 0-60.331 11.179-78.379 33.067 0-8.576-.555-17.579-1.408-26.069h-42.069c.768 13.824 1.451 30.421 1.451 44.245v37.419H127.361c2.304-38.997 29.141-61.909 66.005-61.909 25.557 0 48.256 10.667 55.851 33.067h44.16c-8.533-45.995-57.344-61.397-99.371-61.397-76.331-.768-110.165 41.515-110.165 98.176 0 62.421 34.944 103.595 111.019 103.595 60.117 0 104.32-31.488 104.704-99.925v-.171zm325.418-6.528c-39.04-1.152-63.104-8.235-63.104-33.835 0-16.597 12.843-34.517 46.507-34.517 44.885 0 68.907 24.491 68.907 64.597v4.651c-16.043 0-35.243-.256-52.864-.853h.469l.085-.043zm-215.85-66.731c39.552 0 66.816 28.672 66.816 71.936s-27.392 71.936-67.413 71.936c-39.595 0-67.328-28.672-67.328-71.936s27.264-71.936 66.773-71.936h1.152zM254.208 459.52c-1.579 40.064-30.464 55.083-61.44 55.083-33.621 0-60.331-16.853-64.683-55.083h126.123z"/><glyph unicode="" glyph-name="bxl-edge" d="M868.224 376.149h-489.6c0-18.475 2.688-35.2 8.32-50.261 6.016-14.891 13.781-28.16 23.765-39.808 9.856-11.605 21.547-21.504 35.157-29.909 13.184-8.363 27.563-15.317 42.88-20.651 15.189-5.547 31.104-9.643 47.232-12.288a320.666 320.666 0 01105.685.896c18.048 3.328 35.499 7.808 52.693 13.355 17.237 5.675 33.92 12.373 50.603 20.053 16.768 7.68 33.707 16.043 51.243 25.344V120.533c-19.584-9.515-38.699-17.579-57.899-24.448-19.115-6.741-38.272-12.629-57.771-17.28-19.499-4.779-39.253-8.363-59.563-10.496-20.736-2.304-41.6-3.371-62.464-3.371-28.757 0-56.491 3.371-83.2 9.899-26.112 6.357-51.371 15.957-75.179 28.501-23.296 12.331-44.971 27.52-64.427 45.312-39.381 35.541-68.096 81.365-82.816 132.395a297.697 297.697 0 00-11.392 83.328c0 31.445 4.309 61.397 12.928 90.027 8.747 28.757 21.077 54.827 37.376 78.763 16.341 24.149 36.352 45.696 59.221 63.829a314.862 314.862 0 0078.805 45.483c-16.128-16.171-28.757-35.456-37.077-56.704-8.747-20.992-14.507-43.008-17.109-65.621h272.683c0 27.563-2.688 51.499-8.363 72.064-5.589 20.651-14.592 37.76-27.179 51.243-12.459 13.653-28.501 24.021-48.299 30.677-19.712 6.827-43.563 10.283-71.467 10.283-32.896 0-65.835-4.736-98.731-14.677-32.896-9.643-64.213-23.381-93.867-40.747-29.653-17.579-56.96-38.272-81.877-61.952-24.875-23.979-45.824-49.707-62.891-77.611a449.841 449.841 0 0020.693 93.013c9.941 29.568 23.083 57.131 38.912 82.688 15.701 25.045 34.389 48.085 55.595 68.651 21.163 20.608 44.629 38.315 70.613 52.693 25.941 14.336 53.461 25.941 83.413 33.792a428.402 428.402 0 0095.275 10.837c19.627 0 39.125-1.749 58.667-5.291 19.499-3.584 38.528-8.363 57.131-14.592 36.864-12.672 69.76-30.421 98.773-52.864a339.232 339.232 0 0073.003-78.208c19.755-29.525 34.688-62.251 45.013-97.792s15.573-72.576 15.573-111.019v-95.147h-.085z"/><glyph unicode="" glyph-name="bxl-etsy" d="M475.264 360.192c-18.688 0-29.568 12.544-29.568 45.141v115.029l62.123-4.779 3.157 29.611-63.829-3.157v65.28h-18.688c-9.216-51.243-32.384-69.888-63.488-73.045v-15.531h37.077V388.096c0-35.669 25.088-54.229 56.021-54.229 24.96 0 51.285 10.88 60.501 32.555l-9.259 10.88c-4.608-7.68-17.152-17.109-34.048-17.109zm-149.077 34.261c-12.544-29.44-32.725-31.104-52.907-31.104H208c-21.675 0-31.104 7.936-31.104 26.453v96.341s46.592 0 62.165-1.664c12.416-1.493 18.688-4.651 23.296-20.181l4.608-21.803h18.688l-1.664 55.851 3.157 54.528h-18.517l-6.272-24.96c-3.115-17.024-6.272-18.688-23.296-21.675-21.675-1.621-62.165-1.621-62.165-1.621v114.944c0 4.779 0 6.272 7.893 6.272h97.749c17.152 0 26.453-13.909 32.555-41.813l6.272-21.845h17.024c1.664 62.165 3.157 88.491 3.157 88.491s-41.856-4.48-66.645-4.48H150.613l-65.28 1.323v-17.024l21.675-4.565c15.659-3.157 20.267-6.272 20.267-20.181 0 0 1.664-41.984 1.664-111.744 0-69.931-1.664-111.915-1.664-111.915 0-12.416-4.608-17.024-20.267-20.181l-21.675-4.821v-16.896l66.773 1.493h111.915c24.789 0 83.84-1.493 83.84-1.493 1.451 15.403 9.216 83.797 10.88 91.563H343.04l-16.853-37.291zm257.706 111.872c0 20.224 18.645 27.947 37.333 27.947 15.36 0 27.861-6.272 31.104-13.867l10.88-31.104 15.403 1.493c0 15.531 1.621 35.755 4.736 51.243-13.995 6.272-41.941 9.429-60.629 9.429-41.984 0-74.539-18.816-74.539-59.179 0-71.424 104.107-55.893 104.107-108.757 0-17.024-10.923-31.104-37.376-31.104-24.789 0-35.712 12.544-40.32 24.96l-12.373 29.568h-15.744c1.707-20.309 3.157-40.448 0-58.965 0 0 32.725-12.544 65.323-12.544 43.605 0 79.275 21.632 79.275 62.165 0 71.424-107.179 60.629-107.179 108.715zm271.744 40.32v-15.531l11.051-3.157c10.752-2.987 15.36-7.595 15.36-15.488 0-4.608-1.451-6.144-3.115-12.416-4.608-12.416-34.219-85.461-49.579-118.059-18.688 46.592-43.605 116.395-46.635 125.824-1.493 3.115-1.493 4.608-1.493 6.229 0 6.315 4.48 12.459 15.403 13.909l14.037 3.157v15.531l-57.429-3.115-46.763 1.664v-15.701l7.979-2.944c10.709-3.157 12.245-4.693 20.011-21.845 29.568-65.28 62.165-150.571 73.216-177.067-24.917-43.477-51.371-55.851-71.552-55.851-12.416 0-17.024 6.272-18.56 14.037l-6.229 32.555-17.067-1.493c-3.115-20.352-6.272-41.984-10.88-59.008 12.245-7.765 26.283-12.544 44.928-12.501 29.483 0 71.467 7.765 111.915 99.499l68.309 159.872c6.187 12.501 7.765 14.037 23.296 20.309l7.808 6.144v15.445l-40.32-1.451-43.691 1.451z"/><glyph unicode="" glyph-name="bxl-facebook" d="M571.605 64.128v349.696h117.973l17.536 136.917H571.605v87.211c0 39.509 11.008 66.56 67.712 66.56h71.851v122.069c-34.944 3.755-70.101 5.547-105.259 5.419-104.277 0-175.872-63.659-175.872-180.523v-100.48H312.832V414.08h117.461V64.128h141.312z"/><glyph unicode="" glyph-name="bxl-facebook-circle" d="M512.043 874.581c-235.605 0-426.624-191.019-426.624-426.624 0-212.907 155.989-389.376 359.979-421.504v298.155H337.025v123.349h108.373v93.995c0 107.008 63.701 166.016 161.109 166.016 46.677 0 95.573-8.32 95.573-8.32V594.731h-53.931c-52.907 0-69.461-32.939-69.461-66.688v-80h118.229l-18.901-123.349h-99.328V26.539c203.989 31.957 359.979 208.469 359.979 421.419 0 235.605-191.019 426.624-426.624 426.624z"/><glyph unicode="" glyph-name="bxl-facebook-square" d="M853.333 832H170.666c-23.595 0-42.667-19.115-42.667-42.667V106.666c0-23.552 19.072-42.667 42.667-42.667h367.573v296.96h-99.755v116.267h99.755v85.333c0 99.2 60.587 153.259 149.333 153.259a834.71 834.71 0 0089.387-4.565V608h-61.227c-48.128 0-57.515-22.955-57.515-56.533V477.44h115.072l-14.933-116.267H658.175V64h195.157c23.595 0 42.667 19.115 42.667 42.667v682.667c0 23.552-19.072 42.667-42.667 42.667z"/><glyph unicode="" glyph-name="bxl-figma" d="M654.165 590.165c78.507 0 142.165 63.701 142.165 142.123 0 78.464-63.659 142.165-142.165 142.165H369.834c-78.507 0-142.165-63.701-142.165-142.165 0-78.421 63.659-142.123 142.165-142.123-78.507 0-142.165-63.701-142.165-142.208 0-78.464 63.659-142.165 142.165-142.165-78.507 0-142.165-63.701-142.165-142.165 0-78.507 63.659-142.165 142.165-142.165S511.999 85.206 511.999 163.67v426.496h142.165zM796.331 448c0-78.516-63.65-142.165-142.165-142.165S512.001 369.485 512.001 448c0 78.516 63.65 142.165 142.165 142.165S796.331 526.515 796.331 448z"/><glyph unicode="" glyph-name="bxl-firefox" d="M923.051 484.779c-1.109 7.467-2.56 12.203-2.56 12.203s-2.859-3.584-7.979-10.069a271.085 271.085 0 01-9.728 54.357c-6.443 22.272-14.805 43.947-25.216 64.469-6.4 13.739-14.037 27.093-23.04 39.253-4.651 7.253-8.661 12.629-9.429 13.739-15.445 25.131-32.725 40.405-53.291 69.163-12.971 21.931-21.931 46.379-26.24 71.637-5.803-15.104-10.069-30.976-12.928-46.805-20.608 20.864-38.955 36.096-49.835 46.08-54.059 50.475-47.488 76.373-47.488 76.373S554.453 762.752 598.058 645.76c15.104-39.637 41.131-74.624 75.264-100.139 42.197-34.688 87.552-61.952 111.317-132.309-19.072 37.12-48.256 67.755-83.925 89.045 10.795-25.685 16.213-52.565 15.829-80.384 0-105.173-85.291-190.507-190.976-190.507-14.037 0-28.459 1.408-42.027 4.651-16.64 3.243-32.555 8.576-47.232 16.171-22.272 13.355-41.813 30.976-56.917 52.309v.299c1.792-.683 2.859-1.024 3.2-1.024 7.979-2.859 15.872-5.035 24.192-6.528 32.341-6.784 65.877-2.816 95.787 11.221 30.208 16.896 48.597 29.227 63.317 24.491 14.848-4.651 25.941 9.387 15.915 24.107-18.048 23.381-47.573 34.645-76.373 29.525-30.336-4.309-58.027-25.557-97.28-4.992-2.859 1.365-4.992 2.816-7.509 4.309-2.56 1.792 8.619-2.176 5.717-.384-8.661 4.395-16.896 9.003-24.832 14.805-.384.384 6.187-1.835 5.376-1.408-10.027 6.827-19.115 15.787-25.941 26.197-6.784 12.629-7.595 28.117-1.707 41.515 3.925 6.827 9.301 11.861 16.213 15.104 4.992-2.56 8.192-4.267 8.192-4.267s-2.517 4.267-3.627 6.443c.427.341.811 0 1.493.341 4.352-1.792 14.037-6.784 19.413-10.069 3.669-1.707 6.528-4.693 9.045-7.936 0 0 1.835.725.384 4.608-1.835 4.736-5.077 8.747-9.429 11.221h.768c3.968-2.176 7.595-4.352 11.136-7.125 3.243 7.936 5.077 15.701 4.779 24.021.299 4.608-.469 9.387-1.835 13.355-1.493 2.859.725 3.968 3.2 1.067-.427 2.219-1.067 4.352-2.176 6.485 0 0 1.451 2.176 2.176 2.645 1.835 1.707 3.584 3.499 5.803 4.565 12.501 7.893 25.557 14.805 39.253 20.224 11.093 4.565 20.139 8.576 21.973 9.728 2.859 1.792 5.419 3.584 7.936 5.803 9.387 7.893 15.531 18.688 17.621 30.635.427 1.707.427 3.157.427 4.565v2.944c-1.451 6.144-11.904 10.453-66.261 15.872-19.072 2.773-34.56 17.323-38.869 36.352v-.299c-.725-1.877-1.493-3.968-2.176-6.229.683 2.261 1.408 4.011 2.176 6.229v.299c10.368 27.051 29.141 50.432 53.291 66.261 1.323 1.067-5.376-.299-3.968.725 4.352 2.176 9.003 4.395 14.037 6.187 2.517.768-10.453 5.717-21.973 4.693-6.912-.384-13.739-2.176-20.181-4.693 2.859 2.091 10.752 5.035 8.96 5.035-14.72-2.517-28.8-7.979-41.387-15.488 0 1.408.427 2.56.768 3.541-10.155-4.309-19.157-11.221-25.6-19.797v4.779c-4.651-3.712-8.661-7.723-12.587-11.947h-.341c-29.909 11.477-62.379 14.421-94.08 7.851l-.341.384h.341c-6.4 5.035-12.117 11.563-16.512 18.731l-.427-.299-.64.683c-2.261 2.901-3.968 6.485-6.272 10.496-1.707 2.56-3.157 5.803-4.949 8.96 0 0 0 .341-.341.341-.427 0-1.109-3.285-1.408-2.091-5.419 14.336-8.32 29.824-7.637 44.928h-.341c-8.96-6.101-15.872-14.72-19.115-25.131-1.749-3.669-2.859-5.461-3.925-7.637v1.195l1.024 5.333c-.256-.384-.256-.725-.725-1.067a45.244 45.244 0 01-6.4-9.813c-1.877-3.2-3.285-6.699-4.395-10.368v1.792c0 1.451.384 3.627 0 2.859l-.384-.981c-11.52-25.643-19.029-53.035-21.589-81.152-.683-5.035-.683-9.728-.683-14.379v-.768c-8.235-8.917-15.488-18.688-21.931-29.141-20.949-35.328-36.437-73.472-46.165-113.451 6.869 15.104 15.104 29.909 24.875 43.563-18.731-47.189-28.117-96.896-28.117-147.371 3.243 14.763 7.211 29.184 11.861 43.605-2.901-59.435 8.661-118.912 33.579-173.312 33.408-74.923 88.875-137.941 159.488-180.437 28.459-19.456 59.819-34.645 92.544-44.715 4.352-1.408 9.088-3.157 13.355-4.651-1.451.768-2.517 1.493-3.925 1.792 38.912-11.563 79.531-17.621 120.235-17.621 144.512 0 192.043 55.125 196.693 60.501 6.827 6.443 12.928 14.123 16.896 23.083 2.901 1.024 5.419 2.133 8.32 3.584l1.749.683c2.176 1.109 3.2 1.451 3.2 1.451 22.059 10.411 42.539 23.083 61.312 38.229 28.032 20.181 47.872 49.749 56.576 83.243 5.333 12.203 5.333 25.6 1.024 38.144 2.133 3.584 4.011 6.869 4.309 7.595 31.019 49.749 48.683 106.624 51.157 165.376v4.949c.128 12.288-.981 25.003-3.072 37.205z"/><glyph unicode="" glyph-name="bxl-flickr" d="M476.032 448c0-107.776-87.381-195.115-195.157-195.115C173.184 252.885 85.76 340.224 85.76 448c0 107.733 87.381 195.115 195.115 195.115 107.776 0 195.157-87.381 195.157-195.115zm462.208 0c0-107.776-87.381-195.115-195.157-195.115-107.733 0-195.115 87.339-195.115 195.115 0 107.733 87.381 195.115 195.115 195.115 107.776 0 195.157-87.381 195.157-195.115z"/><glyph unicode="" glyph-name="bxl-flickr-square" d="M853.333 832H170.666c-23.595 0-42.667-19.072-42.667-42.667V106.666c0-23.595 19.072-42.667 42.667-42.667h682.667c23.595 0 42.667 19.072 42.667 42.667v682.667C896 812.928 876.928 832 853.333 832zM373.205 330.837c-64.725 0-117.12 52.437-117.12 117.163s52.437 117.163 117.12 117.163c64.811 0 117.205-52.437 117.205-117.163 0-64.768-52.395-117.163-117.205-117.163zm277.59 0c-64.725 0-117.205 52.437-117.205 117.163s52.48 117.163 117.205 117.163S767.915 512.726 767.915 448c0-64.768-52.395-117.163-117.12-117.163z"/><glyph unicode="" glyph-name="bxl-foursquare" d="M748.757 722.901l-17.195-90.155c-2.091-9.771-14.379-20.053-25.813-20.053H545.322c-18.133 0-31.104-12.629-31.104-30.464v-19.755c0-18.347 13.099-30.933 31.147-30.933h136.277c12.715 0 25.216-14.08 22.357-27.563l-17.237-88.875c-1.579-7.723-10.112-20.267-25.259-20.267H550.186c-20.352 0-26.325-2.944-39.936-19.371-13.483-16.853-135.467-163.285-135.467-163.285-1.109-1.408-2.304-.939-2.304.469v511.744c0 11.563 9.984 25.088 25.003 25.088h330.923c12.075 0 23.424-11.477 20.352-26.368v-.213zm14.55-353.621c4.736 18.645 56.277 282.88 73.472 366.635zm9.941 465.237H360.832c-56.747 0-73.515-42.752-73.515-69.76V109.696c0-30.293 16.256-41.6 25.429-45.312 9.131-3.712 34.432-6.869 49.621 10.539 0 0 194.688 225.963 197.973 229.248 5.333 5.035 5.333 5.035 10.155 5.035h126.037c53.12 0 61.355 37.76 67.157 59.947 4.864 18.304 56.533 282.539 73.429 366.72 13.099 63.829-3.371 98.603-63.787 98.603h-.085z"/><glyph unicode="" glyph-name="bxl-git" d="M922.453 486.059L549.93 858.496c-21.461 21.419-56.235 21.419-77.781 0l-77.184-77.269 98.091-98.133c22.912 7.637 49.024 2.517 67.157-15.659 18.347-18.347 23.381-44.757 15.573-67.541l94.464-94.592c22.955 7.936 49.323 2.773 67.541-15.445 25.643-25.6 25.643-66.944 0-92.544-25.557-25.6-66.816-25.6-92.416 0-19.157 19.2-23.979 47.488-14.379 70.912l-88.491 88.021V324.267a64.746 64.746 0 0017.365-12.373c25.387-25.643 25.387-66.901 0-92.416-25.557-25.643-67.157-25.643-92.757 0-25.557 25.557-25.557 66.773 0 92.331 6.485 6.4 13.739 11.264 21.504 14.464v234.24c-7.723 3.243-15.061 7.936-21.333 14.251-19.371 19.371-24.021 47.701-14.08 71.424l-96.427 96.896-255.445-255.232c-21.333-21.504-21.333-56.32 0-77.824L473.855 37.591c21.461-21.504 56.235-21.504 77.696 0l370.773 370.731c21.632 21.376 21.632 56.235.128 77.739z"/><glyph unicode="" glyph-name="bxl-github" d="M513.109 874.667c-235.051 0-425.557-190.507-425.557-425.557 0-187.989 121.899-347.52 291.029-403.84 21.291-3.84 28.971 9.259 28.971 20.523 0 10.112-.341 36.907-.469 72.363-118.4-25.685-143.403 57.088-143.403 57.088-19.285 49.152-47.232 62.251-47.232 62.251-38.613 26.411 2.944 25.813 2.944 25.813 42.752-2.987 65.152-43.861 65.152-43.861 37.973-65.024 99.669-46.251 123.819-35.371 3.883 27.52 14.976 46.293 27.093 56.917-94.464 10.709-193.792 47.232-193.792 210.347 0 46.379 16.597 84.437 43.691 114.133-4.309 10.795-19.029 54.101 4.224 112.64 0 0 35.712 11.477 116.992-43.563 34.048 9.429 70.357 14.165 106.496 14.336 36.224-.171 72.576-4.907 106.496-14.336 81.323 55.083 116.992 43.563 116.992 43.563 23.253-58.539 8.661-101.845 4.224-112.64 27.307-29.696 43.691-67.712 43.691-114.133 0-163.541-99.413-199.467-194.219-210.005 15.147-13.141 28.8-39.083 28.8-78.763 0-56.917-.512-102.827-.512-116.779 0-11.392 7.595-24.619 29.312-20.437 169.045 56.405 290.816 215.808 290.816 403.755 0 235.051-190.507 425.557-425.557 425.557z"/><glyph unicode="" glyph-name="bxl-gitlab" d="M891.392 538.069a28.294 28.294 0 01-1.067 3.712l-89.771 276.437a35.832 35.832 0 01-34.133 24.32c-15.403.085-29.056-9.856-33.664-24.533l-85.589-263.467H376.917l-85.675 263.509c-4.608 14.635-18.261 24.576-33.536 24.533h-.256c-15.403 0-29.099-9.899-33.92-24.533l-89.856-276.821c0-.213-.213-.427-.299-.683L87.85 400.554c-6.869-21.077.555-44.117 18.56-57.173L500.095 57.258c7.125-5.163 16.768-5.12 23.808.128l393.771 285.995c17.877 13.056 25.429 36.096 18.56 57.173l-44.843 137.515zM766.72 792.064l77.184-237.483H689.493l77.227 237.483zm-509.44 0l77.312-237.483H180.395l76.885 237.483zM130.048 375.979c-3.84 2.731-5.419 7.68-3.968 12.117l33.835 103.979 248.192-318.123-278.059 202.027zm63.957 138.197h153.643l109.781-337.749-263.424 337.749zm317.952-375.211L390.101 514.346h243.968L557.61 279.039l-45.653-140.075zm54.699 37.419l105.259 323.755 4.523 14.037h153.771L566.657 176.384zm327.296 199.595L615.808 174.038l.939 1.237 247.211 316.8 33.792-103.936a10.671 10.671 0 00-3.797-12.16z"/><glyph unicode="" glyph-name="bxl-google" d="M865.408 518.144H510.123V370.901h204.459c-19.029-93.568-98.688-147.328-204.459-147.328-124.715 0-225.237 100.523-225.237 225.28 0 124.715 100.523 225.237 225.237 225.237 53.717 0 102.272-19.072 140.373-50.261L761.429 734.72c-67.584 58.923-154.24 95.275-251.307 95.275-211.371 0-381.184-169.771-381.184-381.184S298.709 67.627 510.122 67.627c190.592 0 363.904 138.624 363.904 381.184 0 22.528-3.456 46.805-8.619 69.333z"/><glyph unicode="" glyph-name="bxl-google-plus" d="M833.92 318.933v103.296h103.339v77.44H833.92v103.296h-77.44V499.669H653.184v-77.44H756.48V318.933zM343.552 605.781c48.341 0 80.896-20.651 99.413-38.229l73.472 71.253c-44.715 41.813-103.04 67.413-172.885 67.413-142.421.043-258.219-115.669-258.219-258.219S201.13 189.738 343.552 189.738c149.035 0 247.979 104.832 247.979 252.288 0 21.461-2.731 36.693-6.528 52.907H343.424v-96.256h142.165c-6.741-40.576-43.136-109.056-142.037-109.056-85.461 0-155.179 71.04-155.179 158.037 0 87.125 69.717 158.123 155.179 158.123z"/><glyph unicode="" glyph-name="bxl-google-plus-circle" d="M939.264 449.109c-.768 235.179-191.701 425.557-426.923 425.557-235.307 0-426.197-190.379-426.965-425.557 0 .427-.043.725-.043 1.109v-4.779c0 .299 0 .64.043.981.725-235.221 191.616-425.685 426.965-425.685 235.264 0 426.155 190.379 426.923 425.557 0-.384.043-.725.043-1.109v5.034c0-.427-.043-.725-.043-1.109zM395.989 253.568c-107.051 0-194.048 86.997-194.048 194.091S288.938 641.75 395.989 641.75c52.48 0 96.341-19.243 129.963-50.688l-55.253-53.547c-13.867 13.184-38.357 28.715-74.709 28.715-64.213 0-116.608-53.376-116.608-118.827 0-65.408 52.437-118.784 116.608-118.784 74.325 0 101.717 51.456 106.752 81.92H395.905v72.448h181.547c2.816-12.203 4.907-23.637 4.907-39.765 0-110.805-74.325-189.653-186.368-189.653zm446.208 174.72h-77.611v-77.611h-58.197v77.611h-77.653v58.197h77.653v77.653h58.197v-77.653h77.611v-58.197z"/><glyph unicode="" glyph-name="bxl-html5" d="M176.469 831.488h671.104l-61.056-689.067-275.243-77.909-273.664 77.909-61.141 689.067zm224.683-311.552l-7.381 86.827 321.408-.085 7.381 83.755-421.12.085 22.272-255.915h291.627L604.971 325.12 512 299.435l-94.464 25.813-6.016 67.413h-83.371l10.539-133.248L512 213.077l171.861 46.08 23.808 260.736-306.517.043z"/><glyph unicode="" glyph-name="bxl-imdb" d="M582.229 523.221c-2.432 1.365-6.827 2.048-13.355 2.048V374.144c8.576 0 13.824 1.749 15.829 5.205s2.987 12.843 2.987 28.16v89.259c0 10.411-.341 17.067-.981 20.011-.64 2.901-2.133 5.035-4.48 6.443zm149.291-50.432c-3.499 0-5.845-1.323-6.912-3.883-1.067-2.603-1.579-9.131-1.579-19.627v-60.843c0-10.112.597-16.597 1.749-19.456 1.237-2.816 3.669-4.267 7.168-4.267 3.669 0 8.491 1.493 9.6 4.395 1.152 2.944 1.664 9.984 1.664 21.12v59.051c0 9.728-.597 16.085-1.835 19.072-1.365 2.944-6.272 4.437-9.856 4.437zM853.333 832H170.666c-23.595 0-42.667-19.115-42.667-42.667V106.666c0-23.552 19.072-42.667 42.667-42.667h682.667c23.595 0 42.667 19.115 42.667 42.667v682.667C896 812.885 876.928 832 853.333 832zm-570.41-497.621h-59.819v230.272h59.819V334.379zm205.738 0H436.48l-.256 155.435-20.907-155.435h-37.333L355.925 486.4l-.171-152.021h-52.352v230.272h77.611c2.176-13.952 4.565-30.293 7.083-49.067l8.576-58.496 13.824 107.563h78.165V334.379zm156.331 68.309c0-20.651-1.152-34.475-3.072-41.387-1.92-6.955-5.333-12.416-10.155-16.341-4.907-3.925-10.837-6.699-18.005-8.235-7.083-1.579-17.835-2.347-32.171-2.347h-72.491V564.65h44.672c28.928 0 45.653-1.323 55.851-3.968 10.24-2.645 18.005-6.997 23.253-13.056 5.333-6.059 8.661-12.8 9.984-20.267 1.323-7.424 2.176-22.016 2.176-43.776v-80.896zm155.904-15.445c0-13.824-.981-24.107-2.816-30.848-1.92-6.784-6.187-12.629-13.184-17.621-6.827-4.949-14.933-7.424-24.405-7.424-6.741 0-15.573 1.493-21.419 4.437-5.931 2.944-11.264 7.381-16.085 13.312l-3.755-14.677h-53.845v230.229h57.6v-74.88c4.736 5.504 10.069 9.643 16 12.331 5.845 2.731 14.677 4.096 21.504 4.096 7.936 0 14.848-1.237 20.651-3.712 5.845-2.475 10.155-5.888 13.269-10.368 3.072-4.437 4.907-8.789 5.504-13.056.683-4.267.981-13.355.981-27.221v-64.597z"/><glyph unicode="" glyph-name="bxl-instagram" d="M511.957 645.248c-108.971 0-197.248-88.32-197.248-197.248 0-108.971 88.277-197.291 197.248-197.291 108.885 0 197.248 88.32 197.248 197.291 0 108.928-88.363 197.248-197.248 197.248zm0-325.419c-70.784 0-128.171 57.387-128.171 128.128 0 70.784 57.387 128.128 128.171 128.128s128.085-57.344 128.085-128.128c0-70.741-57.301-128.128-128.085-128.128zm251.094 332.672c0-25.402-20.593-45.995-45.995-45.995s-45.995 20.593-45.995 45.995c0 25.402 20.593 45.995 45.995 45.995s45.995-20.593 45.995-45.995zm113.024 46.763c-20.011 51.584-60.757 92.373-112.341 112.299-29.824 11.221-61.355 17.237-93.269 17.92-41.088 1.792-54.101 2.304-158.293 2.304s-117.547 0-158.293-2.304c-31.829-.64-63.36-6.656-93.184-17.92-51.627-19.925-92.373-60.715-112.341-112.299-11.221-29.867-17.237-61.355-17.877-93.269-1.835-41.045-2.389-54.059-2.389-158.293 0-104.192 0-117.461 2.389-158.293.64-31.915 6.656-63.403 17.877-93.312 20.011-51.541 60.757-92.331 112.384-112.299 29.696-11.605 61.227-18.176 93.227-19.2 41.088-1.792 54.101-2.347 158.293-2.347s117.547 0 158.293 2.347a282.255 282.255 0 0193.269 17.877 196.801 196.801 0 01112.341 112.341c11.221 29.867 17.237 61.355 17.877 93.269 1.835 41.045 2.389 54.059 2.389 158.293s0 117.461-2.389 158.293c-.555 32.341-6.528 64.384-17.963 94.592zm-51.968-406.699c-.299-24.576-4.736-48.939-13.269-72.021-13.013-33.579-39.509-60.117-73.045-73.003-22.827-8.491-46.891-12.928-71.253-13.269-40.533-1.877-51.968-2.347-155.904-2.347-104.021 0-114.645 0-155.947 2.347-24.277.299-48.427 4.779-71.211 13.269a127.34 127.34 0 00-73.344 73.003c-8.363 22.784-12.885 46.891-13.269 71.211-1.835 40.533-2.261 51.968-2.261 155.904 0 103.979 0 114.603 2.261 155.947.299 24.576 4.736 48.896 13.269 71.979 13.013 33.664 39.68 60.16 73.344 73.045 22.784 8.448 46.933 12.928 71.211 13.269 40.576 1.835 51.968 2.347 155.947 2.347s114.645 0 155.904-2.347a211.67 211.67 0 0071.253-13.269c33.536-12.928 60.032-39.467 73.045-73.045 8.363-22.784 12.885-46.891 13.269-71.211 1.835-40.576 2.304-51.968 2.304-155.947 0-103.936 0-115.115-1.835-155.904h-.469z"/><glyph unicode="" glyph-name="bxl-instagram-alt" d="M893.739 605.653c-.469 32.299-6.443 64.341-17.877 94.549-20.011 51.584-60.757 92.373-112.341 112.341-29.824 11.221-61.355 17.237-93.269 17.92-41.045 1.835-54.059 2.347-158.251 2.347s-117.547 0-158.293-2.347c-31.872-.683-63.403-6.699-93.227-17.92A196.56 196.56 0 01148.14 700.202a279.638 279.638 0 01-17.877-93.227c-1.835-41.088-2.389-54.101-2.389-158.293s0-117.504 2.389-158.293c.64-31.915 6.656-63.403 17.877-93.312 20.011-51.541 60.757-92.331 112.384-112.299 29.696-11.605 61.227-18.176 93.227-19.2 41.088-1.835 54.101-2.389 158.293-2.389s117.547 0 158.293 2.389c31.872.64 63.403 6.656 93.269 17.877 51.584 20.011 92.331 60.8 112.341 112.341 11.221 29.867 17.237 61.355 17.877 93.312 1.835 41.045 2.389 54.059 2.389 158.293-.085 104.192-.085 117.419-2.475 158.251zM511.744 251.648c-108.971 0-197.248 88.277-197.248 197.248s88.277 197.248 197.248 197.248c108.885 0 197.248-88.277 197.248-197.248s-88.363-197.248-197.248-197.248zm205.099 355.797c-25.472 0-45.995 20.565-45.995 45.995s20.523 45.995 45.995 45.995c25.387 0 45.952-20.565 45.952-45.995s-20.565-45.995-45.952-45.995zm-76.971-158.549c0-70.763-57.365-128.128-128.128-128.128s-128.128 57.365-128.128 128.128c0 70.763 57.365 128.128 128.128 128.128s128.128-57.365 128.128-128.128z"/><glyph unicode="" glyph-name="bxl-internet-explorer" d="M859.904 596.736c36.267 86.997 38.656 159.488-4.821 202.965-48.341 48.299-164.352 33.792-287.445-24.107h-14.549c-86.912 0-171.52-31.488-234.325-86.997-53.077-48.341-91.733-111.147-108.672-181.163 12.075 14.379 79.744 94.165 157.013 137.643 2.475 0 21.76 12.075 21.76 12.075-2.432 0-38.613-36.267-45.824-43.52C173.868 439.723 74.881 176.384 152.193 99.115 202.881 48.384 294.7 60.459 400.982 118.4c45.867-21.76 96.64-31.36 152.107-31.36 72.491 0 140.16 19.328 198.101 57.984 60.416 38.656 103.936 98.944 130.517 169.045H693.291c-24.149-45.867-79.744-77.312-137.685-77.312-82.176 0-149.845 67.669-152.235 144.939v7.211h492.843v7.253c0 12.075 2.432 26.581 2.432 36.181-.043 58.112-14.549 113.664-38.741 164.395zM205.269 113.579c-38.656 38.656-26.496 113.579 19.328 202.923 21.76-60.416 57.984-113.579 103.893-152.192 14.549-12.032 31.36-24.107 48.341-33.792-77.397-41.088-140.16-48.341-171.563-16.939zm495.19 367.189H405.76v2.432c4.821 74.923 74.837 140.16 157.056 140.16 77.312 0 140.117-60.416 144.939-140.16v-2.432h-7.296zm147.37 135.296c-14.507 24.149-33.835 48.299-55.595 67.627-33.664 31.317-73.045 55.979-115.968 72.491 77.355 36.224 142.549 41.003 176.384 7.211 26.581-31.403 24.192-84.523-4.821-147.328 0-2.432 0-2.432 0 0 0-2.432 0-2.432 0 0z"/><glyph unicode="" glyph-name="bxl-invision" d="M826.069 831.659H197.888c-38.443 0-69.547-31.104-69.547-69.547V133.888c0-38.4 31.104-69.589 69.547-69.589h628.224c38.4 0 69.589 31.147 69.589 69.589v628.224c-.043 38.485-31.189 69.547-69.632 69.547zM384.768 682.453c25.472 0 46.848-20.139 46.848-45.995 0-26.283-21.376-46.08-46.848-46.08v-.939c-25.771 0-46.507 20.736-46.507 46.421 0 25.813 20.736 46.592 46.507 46.592zm313.771-441.685c-47.445 0-70.443 28.245-70.443 66.816 0 11.093 1.408 22.741 4.864 34.645l22.528 81.323c2.901 8.875 3.669 17.28 3.669 24.789 0 26.24-16 41.984-41.429 41.984-32.469 0-53.76-23.168-64.853-68.181L508.8 245.248h-77.269l13.952 55.595c-22.784-37.248-54.229-60.245-93.141-60.245-47.019 0-68.992 26.965-68.992 67.584.256 11.605 1.493 23.296 4.096 34.603l35.243 143.616h-54.528l16.555 61.013h131.2l-51.883-204.971c-3.413-13.184-4.693-23.851-4.693-31.488 0-13.099 6.315-16.896 16.427-19.285 6.229-1.28 55.253-.469 81.835 58.709L491.65 486.4h-55.211l16.683 59.904h118.912l-15.317-68.992c20.651 38.357 61.952 75.179 102.656 75.179 43.179 0 79.147-31.061 79.147-90.069 0-17.067-2.688-33.963-7.68-50.347L708.653 332.8c-1.835-8.021-3.2-14.805-3.2-20.992 0-13.909 5.803-20.651 15.701-20.651 10.155 0 23.595 7.723 38.357 50.005l30.208-11.605c-17.664-62.848-50.432-88.789-91.179-88.789z"/><glyph unicode="" glyph-name="bxl-javascript" d="M128 832h768V64H128v768zm705.067-584.832c-5.589 35.029-28.416 64.469-96.085 91.947-23.552 11.051-49.707 18.688-57.557 36.437-2.901 10.581-3.328 16.299-1.451 22.571 4.821 20.651 29.312 26.837 48.512 21.12 12.501-3.84 24.021-13.44 31.232-28.843 33.067 21.632 33.067 21.632 56.149 36.011-8.661 13.397-12.971 19.243-18.731 25.003-20.181 22.528-47.061 34.048-90.709 33.067l-22.528-2.859c-21.632-5.291-42.283-16.853-54.741-32.171-36.48-41.301-25.941-113.28 18.219-143.104 43.648-32.64 107.563-39.808 115.712-70.528 7.68-37.461-27.819-49.451-62.933-45.141-25.899 5.803-40.32 18.731-56.149 42.752l-58.539-33.621c6.699-15.317 14.379-22.059 25.899-35.499 55.68-56.149 194.901-53.291 219.861 32.171.896 2.859 7.68 22.528 2.389 52.779l1.451-2.091zM545.621 479.019h-71.936c0-61.995-.299-123.648-.299-185.771 0-39.424 2.005-75.605-4.437-86.741-10.539-22.059-37.803-19.243-50.133-15.317-12.672 6.229-19.115 14.891-26.581 27.349-2.005 3.328-3.499 6.229-4.053 6.229l-58.368-36.011c9.771-20.181 24.021-37.504 42.411-48.512 27.349-16.341 64.085-21.632 102.571-13.013 25.088 7.253 46.72 22.144 57.941 45.184 16.384 29.739 12.885 66.261 12.757 107.051.341 65.749 0 131.541 0 197.76l.128 1.792z"/><glyph unicode="" glyph-name="bxl-joomla" d="M662.997 360.149L492.416 189.397c-43.776-43.691-105.515-58.581-161.493-44.715-10.453-45.568-51.328-79.659-100.181-79.659-56.704 0-102.741 45.952-102.741 102.784 0 48.555 33.792 89.259 79.019 99.925-14.251 56.277.555 118.528 44.672 162.603l5.76 5.76 75.819-75.861-5.888-5.76c-24.619-24.96-24.619-64.811 0-89.259 24.619-25.003 64.725-25.003 89.173 0l14.891 14.891 155.819 156.032 75.733-75.989zm29.568-212.821c-58.283-18.048-124.331-3.883-170.496 42.155l-5.76 5.931 75.648 75.819 5.76-5.931c24.661-24.576 64.597-24.576 89.173 0 24.491 24.491 24.619 64.341-.085 89.003l-14.933 14.891-155.733 155.947 75.819 75.776 170.581-170.88c43.648-43.52 59.051-104.875 45.141-160.683 49.963-7.083 88.32-49.792 88.32-101.675 0-57.088-46.037-102.699-102.656-102.699-49.451 0-91.264 35.072-100.352 82.091l-.427.256zM351.189 529.707l170.88 170.752c45.568 45.611 110.635 59.989 168.491 42.752C697.344 793.174 740.352 832 792.277 832c56.704 0 102.741-45.995 102.741-102.699 0-52.181-38.912-95.232-89.301-101.973 16.64-57.557 2.219-122.069-43.179-167.467l-5.845-5.931-75.819 75.819 5.931 5.888c24.576 24.661 24.576 64.512 0 89.045-24.533 24.533-64.341 24.576-89.003-.085l-14.805-14.763-155.989-155.819-75.819 75.691zm-84.906-84.651l-14.763 14.805c-45.781 45.739-59.989 111.189-42.624 169.173-45.696 10.496-79.957 51.285-79.957 100.267C128.939 785.962 175.062 832 231.68 832c51.072 0 93.44-37.333 101.461-86.144 55.381 12.971 116.053-2.091 159.317-45.269l5.888-5.973-75.861-75.776-5.845 5.803c-24.619 24.491-64.512 24.491-89.088 0-24.704-25.003-24.661-64.811-.171-89.259l14.891-14.933L498.261 364.46l-75.733-75.819L266.325 444.63v.427h-.043z"/><glyph unicode="" glyph-name="bxl-jquery" d="M142.72 664.107c-74.923-107.648-65.621-247.723-8.363-362.112a359.37 359.37 0 014.181-8.107c.896-1.707 1.749-3.499 2.688-5.163.512-1.024 1.109-2.005 1.664-2.944a331.977 331.977 0 012.987-5.333c1.792-3.115 3.584-6.229 5.461-9.344a325.917 325.917 0 013.115-5.12 388.765 388.765 0 016.315-9.899c.896-1.408 1.792-2.816 2.688-4.181a434.451 434.451 0 019.173-13.269c.085-.085.171-.213.256-.341.512-.683 1.024-1.365 1.536-2.091 2.688-3.755 5.504-7.467 8.363-11.136 1.067-1.365 2.091-2.688 3.157-4.011 2.56-3.2 5.12-6.315 7.765-9.515.939-1.152 1.963-2.347 2.944-3.499a585.699 585.699 0 0110.752-12.331l.213-.213c.171-.171.299-.256.427-.469 3.541-3.883 7.253-7.723 10.923-11.563l3.541-3.541c2.859-2.859 5.803-5.717 8.747-8.576 1.195-1.152 2.389-2.304 3.584-3.413 3.925-3.712 7.936-7.339 11.989-10.923.043-.043.128-.085.171-.171a75.104 75.104 0 012.091-1.749 372.725 372.725 0 0110.88-9.173c1.493-1.195 2.987-2.432 4.48-3.584a473.998 473.998 0 019.045-7.083l4.864-3.712a438.905 438.905 0 0110.197-7.296c1.237-.896 2.432-1.792 3.712-2.645.341-.256.683-.512 1.024-.725 3.243-2.261 6.571-4.395 9.856-6.528 1.408-.939 2.816-1.92 4.309-2.859a467.36 467.36 0 0115.488-9.472c1.408-.811 2.816-1.621 4.267-2.389 3.84-2.219 7.68-4.437 11.605-6.528 2.133-1.109 4.267-2.219 6.443-3.328 2.773-1.451 5.504-2.901 8.32-4.309.64-.341 1.28-.64 1.92-.939a83.486 83.486 0 003.413-1.664c4.352-2.048 8.747-4.139 13.141-6.101.939-.384 1.877-.811 2.816-1.237a399.458 399.458 0 0115.36-6.357c1.237-.512 2.517-.981 3.755-1.493a596.51 596.51 0 0114.507-5.419c.64-.213 1.237-.427 1.792-.64 5.333-1.877 10.752-3.627 16.213-5.291 1.28-.384 2.603-.811 3.925-1.195 5.461-1.664 10.923-3.627 16.64-4.693 362.325-66.048 467.541 217.685 467.541 217.685-88.405-115.115-245.248-145.493-393.899-111.701-5.632 1.28-11.136 3.029-16.64 4.651-1.365.427-2.731.853-4.139 1.237-5.333 1.664-10.667 3.371-16 5.248-.64.213-1.451.512-2.091.768a369.365 369.365 0 00-14.123 5.248l-3.968 1.536c-5.12 2.005-10.197 4.139-15.189 6.315-1.067.427-2.005.896-3.029 1.323-4.352 1.963-8.619 3.925-12.843 5.973-1.195.597-2.475 1.152-3.712 1.792-3.328 1.621-6.613 3.371-9.899 5.035-2.176 1.152-4.437 2.261-6.613 3.499-4.011 2.133-7.979 4.395-11.861 6.656-1.323.768-2.688 1.451-4.011 2.219a485.587 485.587 0 00-15.488 9.515c-1.408.896-2.773 1.835-4.181 2.773a448.862 448.862 0 00-11.051 7.339c-1.195.811-2.347 1.707-3.541 2.517-3.499 2.475-6.997 4.949-10.411 7.509a185.22 185.22 0 00-4.608 3.499 512.33 512.33 0 00-9.387 7.381 289.664 289.664 0 00-4.224 3.371c-3.925 3.243-7.851 6.485-11.691 9.856a34.58 34.58 0 01-1.28 1.067c-4.181 3.669-8.277 7.424-12.331 11.221-1.195 1.109-2.347 2.176-3.456 3.328a342.824 342.824 0 00-8.875 8.661c-1.152 1.152-2.347 2.304-3.456 3.456a460.784 460.784 0 00-10.837 11.477l-.512.512c-3.755 4.096-7.424 8.32-11.008 12.501-.981 1.195-1.92 2.304-2.859 3.456-2.688 3.2-5.333 6.485-7.936 9.771-.939 1.195-1.92 2.389-2.901 3.584-3.115 4.053-6.187 8.064-9.173 12.203-82.517 112.555-112.128 267.819-46.208 395.307zm232.491 90.709c-54.187-77.952-51.2-182.315-8.96-264.747 7.083-13.824 15.061-27.264 23.936-40.021 8.149-11.648 17.109-25.472 27.904-34.816 3.925-4.309 7.979-8.491 12.117-12.587a222.329 222.329 0 013.243-3.157 324.176 324.176 0 0112.416-11.563c.128-.128.299-.299.469-.427.085-.043.128-.043.128-.085a353.09 353.09 0 0114.507-11.989c1.109-.853 2.176-1.707 3.328-2.56 4.949-3.797 9.984-7.552 15.147-11.093.128-.128.256-.213.469-.341 2.261-1.579 4.608-3.072 6.869-4.565 1.109-.725 2.176-1.493 3.328-2.176a305.838 305.838 0 0111.221-6.912 31.026 31.026 0 001.621-.939c3.243-1.877 6.613-3.712 9.941-5.547 1.109-.64 2.347-1.237 3.499-1.835 2.347-1.195 4.608-2.432 6.955-3.541.384-.171.725-.341 1.024-.512a411.725 411.725 0 0114.549-6.784c1.067-.469 2.091-.853 3.157-1.323 3.968-1.664 7.936-3.285 11.989-4.821 1.621-.64 3.413-1.28 4.992-1.877 3.669-1.365 7.296-2.56 10.923-3.797 1.707-.512 3.328-1.067 4.992-1.579 5.163-1.621 10.368-3.627 15.787-4.565C870.485 264.321 934.997 479.66 934.997 479.66c-58.197-83.797-170.923-123.819-291.2-92.587-5.333 1.408-10.581 2.901-15.829 4.565-1.664.512-3.157.981-4.821 1.536-3.669 1.195-7.339 2.475-11.051 3.797-1.707.597-3.285 1.237-5.035 1.835-3.925 1.536-8.021 3.157-11.819 4.821-1.152.427-2.219.853-3.243 1.365a374.377 374.377 0 00-14.677 6.784c-2.432 1.195-4.821 2.475-7.253 3.712-1.365.725-2.816 1.451-4.224 2.176a399.523 399.523 0 00-9.301 5.248c-.768.427-1.451.811-2.176 1.28-3.84 2.176-7.552 4.48-11.264 6.827-1.109.725-2.261 1.536-3.413 2.261a234.037 234.037 0 00-7.168 4.821c-5.163 3.541-10.197 7.253-15.104 11.051a78.814 78.814 0 00-3.413 2.688c-52.651 41.557-94.421 98.389-114.261 162.773-20.821 66.816-16.299 141.781 19.712 202.667zm195.626 67.755c-31.957-47.019-35.115-105.344-12.971-157.269 23.381-55.125 71.296-98.304 127.189-118.827 2.261-.853 4.565-1.621 6.912-2.389 1.024-.341 2.048-.683 3.072-.981 3.285-1.024 6.485-2.261 9.941-2.859 154.453-29.824 196.309 79.232 207.445 95.317-36.693-52.864-98.389-65.536-173.995-47.147-6.016 1.451-12.587 3.584-18.347 5.632-7.381 2.688-14.677 5.632-21.717 9.045-13.44 6.443-26.197 14.293-38.187 23.253-67.627 51.371-109.781 149.376-65.536 229.205z"/><glyph unicode="" glyph-name="bxl-jsfiddle" d="M835.413 474.667c.341 4.992.768 9.856.768 14.933 0 138.368-113.835 250.496-254.251 250.496-97.493.341-186.667-55.168-229.504-142.848-20.437 15.787-45.483 24.235-71.424 24.235-64.896 0-117.419-51.627-117.419-115.371 0-12.075 1.835-23.637 5.333-34.475-52.181-30.123-84.352-85.675-84.48-145.835 0-92.715 75.648-168.021 169.6-169.472h507.648c3.157 0 6.4-.512 9.685-.512 92.928 0 168.235 74.197 168.235 166.101-.427 67.243-41.344 127.488-103.765 152.704h-.427v.043zm-521.6-190.592c-16.981 15.403-27.733 34.176-31.915 56.235-1.493 7.723-2.261 15.488-2.261 23.211 0 31.573 11.52 57.472 34.517 77.952 22.912 20.48 52.096 30.805 87.424 30.805 36.437 0 70.571-13.653 100.821-40.832 7.509-6.741 15.019-14.421 21.931-22.869l38.912-45.696c6.741-9.259 13.824-17.024 21.333-23.893 20.096-18.005 41.685-26.965 60.075-26.965 15.573 0 28.587 4.779 38.912 14.336 8.917 8.107 14.336 19.2 15.488 31.147l.341 5.248c.085 5.035-.768 9.984-2.347 14.805-8.064 22.101-29.355 36.48-52.821 35.755-19.328 0-38.485-6.528-59.563-26.923l-34.432 40.533-3.755 4.608c30.421 29.483 60.331 40.533 100.992 40.533 35.755 0 65.067-10.112 86.912-30.379l.597-.597c22.997-20.224 34.176-46.464 34.176-78.592 0-7.552-.597-15.573-2.091-22.528-4.352-21.803-15.019-40.021-31.573-55.509-16.896-15.488-38.101-25.557-60.928-28.885-7.936-1.024-16-1.621-25.088-1.621-36.821 0-71.509 13.355-100.907 40.021-8.32 7.552-16 15.872-22.912 24.576l-38.997 45.44c-6.101 8.619-13.013 16.811-20.821 24.021-19.755 18.133-41.685 26.709-60.928 26.709-5.504 0-11.093-.768-16.597-2.176-8.32-2.176-16.085-6.357-22.315-12.331a48.935 48.935 0 01-15.573-35.797c0-13.824 4.821-25.6 15.019-35.2l.597-.555c10.667-9.685 24.021-14.421 39.509-14.421 19.755 0 38.997 6.912 59.733 27.264l34.176-40.021 3.755-4.224c-30.933-29.995-60.928-41.173-99.925-41.173-35.755 0-65.067 10.155-87.509 30.421l-1.963-2.432z"/><glyph unicode="" glyph-name="bxl-kickstarter" d="M435.115 570.581l141.184 204.757c26.795 38.485 61.184 57.771 103.552 57.771 34.389 0 64.256-12.245 89.472-36.736 25.173-24.491 37.76-53.76 37.76-87.851 0-25.173-6.613-47.488-20.011-66.688L659.797 456.661l155.691-197.419c15.488-19.669 23.339-42.667 23.339-68.992 0-34.816-12.203-64.768-36.693-89.813-24.491-25.003-54.144-37.504-88.917-37.504-38.187 0-67.285 12.416-87.339 37.248L435.201 338.176V207.019c0-37.504-6.485-66.603-19.499-87.424-23.68-37.76-57.856-56.661-103.125-56.661-41.088 0-73.003 13.995-95.573 41.685-21.163 25.685-31.744 59.563-31.744 101.845v486.528c0 39.936 10.795 72.917 32.213 98.901 22.4 27.435 53.547 41.173 93.269 41.173 37.845 0 69.291-13.739 94.549-41.173 14.037-15.232 22.912-30.592 26.667-46.165 2.261-9.685 3.371-27.563 3.371-54.016V570.539h-.213z"/><glyph unicode="" glyph-name="bxl-less" d="M902.059 497.365c0 27.307 4.181 43.435 4.181 72.832 0 45.525-16.768 60.203-53.888 60.203h-27.349v-32.213h8.363c18.944 0 23.125-6.272 23.125-29.397 0-21.717-2.091-43.435-2.091-68.608 0-32.213 10.496-44.8 31.531-49.707v-2.091c-21.035-4.949-31.531-17.536-31.531-49.749 0-25.216 2.091-45.525 2.091-68.608 0-23.808-4.864-30.08-23.125-30.08v-.725h-8.363v-33.621h27.349c37.12 0 53.888 14.677 53.888 60.203 0 30.123-4.181 45.525-4.181 72.832 0 14.72 9.088 30.123 36.437 31.531v36.395c-27.392.683-36.437 16.085-36.437 30.805zm-140.758-42.709c-21.035 8.363-40.619 13.312-40.619 27.307 0 10.496 8.405 16.853 23.808 16.853s29.397-6.315 44.8-17.536l28.032 37.12c-17.451 13.355-41.301 27.349-73.557 27.349-47.573 0-79.829-27.349-79.829-65.877 0-34.304 30.123-51.797 55.381-61.568 21.675-8.363 42.709-15.403 42.709-29.397 0-10.496-8.405-17.493-27.349-17.493-17.493 0-35.029 6.997-53.888 21.717l-28.032-40.619c20.992-17.493 53.205-29.397 79.829-29.397 56.021 0 86.144 29.397 86.144 67.925-.043 38.4-30.165 54.485-57.429 63.616zm-478.293-79.104c-4.864 0-11.179 4.181-11.179 17.493V630.4H172.33c-37.803 0-54.571-14.677-54.571-60.203 0-30.123 4.224-46.976 4.224-72.832 0-14.72-9.088-30.123-36.437-31.531v-36.395c27.349-.725 36.437-16.128 36.437-30.848 0-25.856-4.224-41.301-4.224-71.424 0-45.525 16.811-60.203 53.931-60.203h27.307v32.213h-8.405c-17.536 0-23.125 6.997-23.125 30.123 0 23.083 2.091 42.709 2.091 68.565 0 32.256-10.453 44.8-31.488 49.707v2.176c21.035 4.864 31.488 17.451 31.488 49.707 0 25.173-2.091 45.483-2.091 68.565 0 23.125 4.864 29.397 23.125 29.397h18.859V396.414c0-42.709 14.72-70.699 57.429-70.699 13.355 0 23.851 2.133 31.531 4.907l-7.04 45.483c-4.181-.555-6.229-.555-8.363-.555zm308.821 79.104c-21.717 8.363-41.344 13.312-41.344 27.307 0 10.496 8.405 16.853 23.808 16.853s29.397-6.315 44.843-17.536l27.989 37.12c-17.493 13.355-41.301 27.349-73.515 27.349-47.616 0-79.872-27.349-79.872-65.877 0-34.304 30.165-51.797 55.339-61.568 21.76-8.363 42.752-15.403 42.752-29.397 0-10.496-8.405-17.493-27.349-17.493-17.493 0-34.987 6.997-53.931 21.717l-27.307-40.619c20.992-17.493 53.205-29.397 79.829-29.397 56.021 0 86.144 29.397 86.144 67.925.043 38.4-30.08 54.485-57.387 63.616zm-206.592 91.733c-51.115 0-100.139-42.709-98.731-109.952 0-69.291 45.483-109.909 105.771-109.909 25.216 0 53.205 9.131 74.923 23.808l-20.992 37.12c-15.36-9.088-30.123-13.312-45.483-13.312-28.032 0-49.707 13.312-55.339 45.483h126.763c.725 4.907 2.091 14.72 2.091 25.899.683 56.747-30.165 100.864-89.003 100.864zm-39.893-88.234c4.224 27.947 20.992 41.344 40.576 41.344 25.259 0 35.029-17.536 35.029-41.344h-75.605z"/><glyph unicode="" glyph-name="bxl-linkedin" d="M305.963 746.283c0-51.558-41.796-93.355-93.355-93.355s-93.355 41.796-93.355 93.355c0 51.558 41.796 93.355 93.355 93.355s93.355-41.796 93.355-93.355zm88.149-164.096V64.256h160.811v256.128c0 67.584 12.715 133.035 96.512 133.035 82.645 0 83.669-77.269 83.669-137.301V64.214H896v284.032c0 139.52-30.037 246.741-193.109 246.741-78.293 0-130.773-42.965-152.235-83.627h-2.176v70.827H394.112zm-262.059 0H293.12V64.256H132.053z"/><glyph unicode="" glyph-name="bxl-linkedin-square" d="M853.333 832H170.666c-23.595 0-42.667-19.115-42.667-42.667V106.666c0-23.552 19.072-42.667 42.667-42.667h682.667c23.595 0 42.667 19.115 42.667 42.667v682.667C896 812.885 876.928 832 853.333 832zM355.797 177.621H241.792v366.507h114.005V177.621zm-57.002 416.555c-36.523 0-66.048 29.611-66.048 66.048s29.483 66.048 66.048 66.048c36.437 0 66.048-29.568 66.048-66.048s-29.611-66.048-66.048-66.048zm483.626-416.555H668.544V355.84c0 42.496-.768 97.152-59.221 97.152-59.307 0-68.309-46.336-68.309-94.165V177.579H427.222v366.507h109.227v-50.091h1.579c15.147 28.8 52.352 59.179 107.691 59.179 115.371 0 136.661-75.861 136.661-174.592v-200.96z"/><glyph unicode="" glyph-name="bxl-magento" d="M512 20.523l-158.592 91.563v427.093l105.771 61.013V173.099L512 140.971l52.821 32.128V600.15l105.771-61.013V112.044L512 20.524zM881.749 661.12V234.069l-105.6-61.013v427.093L512 752.597 247.765 600.149V173.056L142.25 234.069V661.12l369.749 213.547L881.748 661.12z"/><glyph unicode="" glyph-name="bxl-mailchimp" d="M694.571 469.077c5.632.683 10.965.768 15.915 0 2.816 6.571 3.328 17.877.811 30.208-3.84 18.304-9.003 29.355-19.669 27.563-10.709-1.707-11.136-14.933-7.253-33.237 2.133-10.24 5.973-19.029 10.197-24.533zm-91.691-14.464c7.68-3.328 12.373-5.504 14.123-3.669 1.237 1.195.896 3.584-.939 6.571-3.755 6.101-11.563 12.373-19.797 15.829-16.853 7.296-36.864 4.907-52.395-6.229-5.077-3.755-9.899-8.917-9.301-12.075.299-.981.981-1.792 2.773-2.133 4.224-.469 18.944 6.997 35.968 8.021 12.032.853 21.888-2.901 29.568-6.315zm-15.403-8.746c-9.899-1.579-15.403-4.821-18.901-7.979-3.029-2.645-4.821-5.461-4.821-7.552l.768-1.792 1.579-.597c2.261 0 7.296 1.963 7.296 1.963 13.824 4.907 22.997 4.352 32.085 3.328 4.992-.597 7.339-.853 8.448.853.299.512.768 1.493-.299 3.157-2.389 3.883-12.416 10.24-26.155 8.619zm76.118-32.256c6.784-3.328 14.208-1.963 16.64 2.944 2.517 4.907-1.024 11.605-7.808 14.891-6.741 3.371-14.208 2.091-16.64-2.816s1.109-11.691 7.808-15.019zm43.434 38.016c-5.461.085-9.984-5.888-10.155-13.483-.128-7.552 4.267-13.696 9.771-13.739 5.504-.085 10.027 5.931 10.155 13.44s-4.224 13.653-9.771 13.781zm-368.81-135.808c-1.365 1.707-3.627 1.237-5.803.64-1.536-.299-3.243-.725-5.077-.683-4.053.085-7.509 1.835-9.429 4.736-2.517 3.84-2.389 9.6.427 16.128l1.28 2.944c4.437 9.856 11.733 26.411 3.499 42.155-6.229 11.861-16.427 19.243-28.629 20.821-11.733 1.493-23.808-2.859-31.531-11.392-12.117-13.355-13.952-31.616-11.648-38.101.896-2.389 2.261-3.029 3.2-3.157 2.048-.299 5.077 1.237 6.997 6.4l.597 1.621c.853 2.731 2.432 7.851 5.035 11.861 3.115 4.907 8.021 8.277 13.781 9.472 5.803 1.28 11.776.171 16.811-3.072 8.533-5.589 11.733-16 8.107-25.941-1.877-5.163-4.907-14.976-4.267-23.04 1.365-16.341 11.52-22.912 20.48-23.723 8.789-.299 14.933 4.608 16.512 8.235.896 2.261.128 3.584-.341 4.096zm507.477 29.909c-.384 1.237-2.603 9.216-5.547 18.773l-6.144 16.384c11.989 18.048 12.203 34.091 10.624 43.221-1.749 11.264-6.357 20.949-15.872 30.891-9.472 9.899-28.885 20.139-56.107 27.776l-14.293 3.968c-.085.64-.768 33.707-1.323 47.915-.469 10.24-1.323 26.283-6.315 42.069-5.973 21.419-16.256 40.021-29.184 52.096 35.627 36.864 57.813 77.525 57.771 112.384-.128 67.029-82.475 87.424-183.979 45.355l-21.461-9.131c-.085.085-38.869 38.144-39.424 38.613C418.645 916.991 56.917 514.815 172.629 417.151l25.301-21.376c-6.571-17.024-9.173-36.48-7.083-57.387 2.773-26.923 16.597-52.651 39.04-72.576 21.333-18.859 49.451-30.891 76.629-30.848 45.013-103.765 147.84-167.339 268.416-170.965 129.365-3.84 237.909 56.875 283.477 165.931 2.944 7.637 15.573 42.112 15.573 72.533-.043 30.635-17.323 43.307-28.288 43.264zm-529.28-81.579c-3.968-.725-7.893-.981-11.947-.896-39.083 1.109-81.28 36.267-85.461 77.952-4.651 46.08 18.901 81.579 60.629 89.941 4.949 1.067 11.008 1.621 17.493 1.323 23.381-1.365 57.771-19.285 65.664-70.187 6.997-45.013-4.096-90.965-46.379-98.133zm-43.563 194.646c-25.984-5.035-48.896-19.755-62.848-40.107-8.405 6.997-23.979 20.48-26.709 25.771-22.357 42.411 24.363 124.928 57.045 171.52 80.597 115.115 206.976 202.197 265.515 186.496 9.472-2.731 40.96-39.296 40.96-39.296s-58.453-32.384-112.725-77.611c-73.003-56.32-128.256-138.069-161.237-226.773zm410.07-177.408c.853.341 1.408 1.28 1.28 2.304a2.167 2.167 0 01-2.389 1.92s-61.184-9.045-118.997 12.075c6.272 20.437 23.083 13.141 48.384 11.051 45.525-2.688 86.485 3.925 116.693 12.629 26.155 7.552 60.544 22.357 87.253 43.435 9.045-19.84 12.203-41.6 12.203-41.6s6.955 1.237 12.8-2.347c5.547-3.413 9.557-10.453 6.827-28.629-5.675-34.048-20.096-61.653-44.459-87.083-14.763-15.957-32.725-29.781-53.291-39.851-10.88-5.76-22.528-10.709-34.731-14.763-91.691-29.909-185.557 2.987-215.808 73.685-2.389 5.333-4.437 10.88-6.059 16.725-12.885 46.592-1.963 102.4 32.213 137.643v.043c2.176 2.219 4.352 4.821 4.352 8.149 0 2.731-1.792 5.675-3.285 7.808-11.947 17.323-53.461 46.891-45.099 104.107 5.931 41.131 41.899 70.059 75.435 68.352l8.533-.512c14.507-.853 27.179-2.688 39.125-3.243 20.053-.811 38.016 2.091 59.349 19.84 7.211 6.059 12.971 11.221 22.699 12.843 1.024.256 3.584 1.067 8.661.896 5.248-.256 10.155-1.749 14.635-4.651 17.067-11.349 19.499-38.912 20.437-59.093.512-11.477 1.92-39.339 2.347-47.275 1.109-18.261 5.931-20.864 15.573-24.021 5.504-1.877 10.581-3.157 18.048-5.333 22.571-6.272 36.053-12.8 44.501-21.035 5.035-5.163 7.381-10.624 8.021-15.872 2.773-19.499-15.061-43.563-62.08-65.408-51.456-23.851-113.877-29.909-156.971-25.088l-15.104 1.707c-34.56 4.608-54.144-39.936-33.451-70.443 13.355-19.669 49.664-32.469 86.059-32.469 83.328-.085 147.413 35.499 171.307 66.304l1.877 2.688c1.109 1.792.213 2.688-1.28 1.749-19.413-13.312-105.941-66.219-198.443-50.347 0 0-11.264 1.877-21.504 5.888-8.107 3.072-25.216 11.008-27.264 28.501 74.539-23.168 121.6-1.323 121.6-1.28zm-118.315 13.952zM421.803 616.405c28.672 33.109 63.957 61.952 95.616 78.08 1.067.597 2.219-.64 1.621-1.621-2.517-4.565-7.381-14.293-8.875-21.675-.256-1.152.981-2.091 1.963-1.365 19.712 13.397 53.931 27.776 83.968 29.568 1.323.085 1.963-1.536.896-2.347-4.523-3.499-9.6-8.32-13.227-13.269-.597-.853-.043-2.091 1.024-2.091 21.077-.128 50.816-7.467 70.144-18.347 1.28-.768.341-3.285-1.067-2.944-29.355 6.699-77.269 11.819-127.104-.341-44.544-10.837-78.507-27.563-103.211-45.611-1.28-.853-2.773.811-1.749 1.963z"/><glyph unicode="" glyph-name="bxl-mastercard" d="M488.704 233.771c2.048-1.749 4.267-3.499 6.443-5.205-41.856-27.733-92.032-43.947-145.92-43.947C203.691 184.534 85.76 302.422 85.76 448c0 145.451 117.973 263.424 263.424 263.424 53.931 0 104.107-16.171 145.835-43.947-2.133-1.835-4.267-3.499-5.888-5.376C426.795 608.213 391.083 530.09 391.083 448c0-82.133 35.541-160.213 97.621-214.229zm186.069 477.653c-53.931 0-104.064-16.171-145.749-43.947 2.091-1.835 4.224-3.499 5.845-5.376C597.248 608.213 632.96 530.09 632.96 448s-35.627-160.128-97.621-214.229c-2.091-1.749-4.309-3.499-6.443-5.205 41.771-27.733 91.947-43.947 145.835-43.947 145.621-.043 263.509 117.845 263.509 263.424 0 145.323-117.845 263.381-263.467 263.381zM512 654.933c-3.371-2.688-6.699-5.376-9.941-8.192C446.507 598.442 411.478 527.36 411.478 448c0-79.445 35.029-150.528 90.581-198.784a310.548 310.548 0 019.941-8.277c3.413 2.688 6.699 5.461 9.941 8.277 55.467 48.256 90.624 119.339 90.624 198.784 0 79.36-35.072 150.443-90.624 198.699-3.2 2.859-6.528 5.547-9.941 8.235z"/><glyph unicode="" glyph-name="bxl-medium" d="M182.827 649.856c.981 9.899-2.773 19.755-10.24 26.411l-75.52 91.008v13.653h234.581l181.333-397.653 159.403 397.653H896v-13.611l-64.64-61.909c-5.547-4.267-8.235-11.264-7.168-18.133V232.192c-1.067-6.912 1.621-13.867 7.168-18.133l63.104-61.909v-13.611H577.195v13.611l65.237 63.445c6.485 6.4 6.485 8.32 6.485 18.091v367.872L467.2 140.033h-24.533L231.126 601.558V292.267a42.777 42.777 0 0111.733-35.541l84.992-103.125V139.99H86.87v13.611l84.992 103.125a41.436 41.436 0 0110.965 35.541v357.589z"/><glyph unicode="" glyph-name="bxl-medium-old" d="M936.832 672.853c.896 1.451.427 3.157-.811 4.139-.171.171-.341.341-.512.427l-.256.085-257.408 128.768c-1.749.853-3.541 1.408-5.376 1.92-2.389.597-4.693.939-7.083.939-9.856 0-19.712-4.949-25.003-13.525L492.159 554.71l185.984-302.208 258.688 420.352zM891.435 95.019c26.069-13.056 47.232-3.925 47.232 20.395v482.645L690.816 195.328 891.435 95.019zm-480.896 514.56V335.403L654.208 213.59zM108.971 201.771l221.44-110.72c5.632-2.816 11.051-4.181 15.957-4.181 13.781 0 23.424 10.667 23.424 28.544v558.677c0 1.067-.597 2.048-1.493 2.517L116.864 802.261c-4.565 2.304-8.875 3.371-12.8 3.371-11.008 0-18.731-8.491-18.731-22.784V240c0-14.549 10.667-31.744 23.637-38.229z"/><glyph unicode="" glyph-name="bxl-medium-square" d="M853.333 832H170.666c-23.595 0-42.667-19.115-42.667-42.667V106.666c0-23.552 19.072-42.667 42.667-42.667h682.667c23.595 0 42.667 19.115 42.667 42.667v682.667C896 812.885 876.928 832 853.333 832zm-87.296-181.973l-41.216-39.467c-3.541-2.688-5.291-7.125-4.523-11.563V308.821c-.768-4.395.981-8.875 4.523-11.563l40.192-39.509v-8.704H562.73v8.704l41.685 40.448c4.139 4.096 4.139 5.333 4.139 11.563v234.581L492.671 250.112H476.97L342.101 544.341V347.136c-1.067-8.277 1.664-16.64 7.509-22.656l54.229-65.749v-8.661H250.068v8.661l54.229 65.749c5.803 6.016 8.363 14.421 6.997 22.656v228.011A19.971 19.971 0 01304.809 592l-48.213 58.027v8.661h149.589L521.812 405.12l101.632 253.568h142.635v-8.661z"/><glyph unicode="" glyph-name="bxl-messenger" d="M512 832c-209.92 0-380.16-159.104-380.16-355.499 0-111.616 55.083-211.285 141.269-276.437V64l129.749 71.979c34.603-9.728 71.168-14.933 109.184-14.933 209.92 0 380.16 159.147 380.16 355.456-.043 196.395-170.283 355.499-380.203 355.499zm40.021-476.672l-98.347 102.144-189.355-104.704 207.573 220.288 98.347-102.187 189.397 104.747L552.02 355.328z"/><glyph unicode="" glyph-name="bxl-microsoft" d="M492.8 64H128v364.8h364.8V64zM896 64H531.2v364.8H896V64zM492.8 467.2H128V832h364.8V467.2zm403.2 0H531.2V832H896V467.2z"/><glyph unicode="" glyph-name="bxl-nodejs" d="M512 21.973c-11.733 0-22.699 3.157-32.939 8.619L374.997 92.373c-15.573 8.661-7.765 11.819-3.072 13.397 21.163 7.04 25.088 8.576 46.976 21.035 2.389 1.579 5.504.853 7.893-.725l79.787-47.787c3.157-1.536 7.083-1.536 9.429 0l312.277 180.779c3.157 1.536 4.693 4.693 4.693 8.619v360.875c0 3.883-1.536 7.04-4.693 8.576L516.01 817.153c-3.115 1.579-7.04 1.579-9.429 0L194.218 637.185c-3.115-1.536-4.693-5.504-4.693-8.576V267.777c0-3.115 1.579-7.083 4.693-8.619l85.333-49.365c46.165-23.381 75.179 4.053 75.179 31.36v356.096c0 4.693 3.883 9.429 9.387 9.429h39.936c4.608 0 9.387-3.925 9.387-9.429V241.11c0-61.824-33.621-97.877-92.331-97.877-18.005 0-32.085 0-72.021 19.627l-82.133 46.891c-20.437 11.819-32.896 33.749-32.896 57.173v360.875c0 23.467 12.501 45.397 32.896 57.131l312.149 180.779c19.669 11.008 46.251 11.008 65.877 0L857.173 684.93c20.437-11.691 32.896-33.664 32.896-57.131V266.924c0-23.424-12.501-45.355-32.896-57.173L544.981 29.015c-10.283-4.693-22.016-7.04-32.981-7.04zm96.256 248.15c-136.96 0-165.12 62.635-165.12 115.797 0 4.693 3.925 9.429 9.387 9.429h40.704c4.693 0 8.576-3.115 8.576-7.851 6.272-41.429 24.235-61.824 107.264-61.824 65.707 0 93.952 14.933 93.952 50.133 0 20.352-7.893 35.2-110.379 45.355-85.291 8.533-138.496 27.435-138.496 95.488 0 63.36 53.205 100.949 142.464 100.949 100.139 0 149.461-34.517 155.691-109.568 0-2.347-.811-4.651-2.389-7.04-1.579-1.536-3.883-3.115-6.229-3.115H703.02c-4.011 0-7.893 3.115-8.619 6.997-9.429 43.179-33.664 57.173-97.792 57.173-72.064 0-80.683-25.045-80.683-43.819 0-22.656 10.112-29.696 107.264-42.24 96.256-12.501 141.653-30.507 141.653-97.877-.853-68.907-57.131-107.989-156.587-107.989z"/><glyph unicode="" glyph-name="bxl-opera" d="M371.627 688.384c-47.189-55.637-77.739-138.069-79.872-230.357v-20.096c2.133-92.373 32.683-174.677 79.872-230.272 61.184-79.573 152.064-129.963 253.781-129.963 62.421 0 120.917 19.115 170.923 52.267C720.982 62.379 621.355 21.334 512 21.334c-6.827 0-13.568.171-20.267.555-226.347 10.496-406.4 197.248-406.4 426.112 0 235.648 191.061 426.667 426.667 426.667h1.621c108.587-.384 207.616-41.472 282.752-108.587-50.048 32.981-108.501 52.267-171.051 52.267-101.632 0-192.597-50.517-253.867-129.963h.171zM938.667 448c0-126.464-54.955-239.957-142.293-318.08-109.397-53.333-211.371-16-245.205 7.339 107.52 23.595 188.672 153.6 188.672 310.741 0 157.269-81.109 287.147-188.672 310.741 33.792 23.253 135.808 60.587 245.205 7.339C883.713 688 938.667 574.421 938.667 448z"/><glyph unicode="" glyph-name="bxl-patreon" d="M896.171 540.544c0-153.073-124.09-277.163-277.163-277.163s-277.163 124.09-277.163 277.163 124.09 277.163 277.163 277.163 277.163-124.09 277.163-277.163zM127.829 817.707h135.424V78.294H127.829z"/><glyph unicode="" glyph-name="bxl-paypal" d="M834.304 555.179c5.163-24.021 4.523-53.163-1.707-87.509-24.832-127.061-105.685-190.549-242.475-190.549h-18.859c-7.168 0-13.397-2.389-18.944-7.083-5.376-4.693-8.875-10.795-10.197-18.219l-1.749-8.064-23.595-148.437-.896-6.443c-1.408-7.467-4.907-13.483-10.539-18.176-5.547-4.736-11.861-7.083-19.072-7.083H378.623c-6.059 0-10.752 2.091-14.123 6.4-3.413 4.352-4.693 9.429-3.84 15.488 2.603 15.915 6.315 40.021 11.392 72.064 4.992 32 8.789 56.064 11.392 72.064s6.4 40.021 11.605 71.893c5.163 31.915 9.045 55.893 11.563 71.893 1.408 10.581 7.637 15.829 18.475 15.829h56.149c38.101-.555 71.765 2.432 101.333 9.003 50.005 11.179 91.051 31.744 123.136 61.824 29.227 27.179 51.328 62.379 66.56 105.515 6.912 20.053 11.819 39.125 15.019 57.088.256 1.749.597 2.816 1.067 3.157.341.469.939.597 1.493.469.512-.171 1.365-.683 2.645-1.493 22.357-16.981 36.437-40.149 41.813-69.632zm-73.728 121.002c0-30.592-6.571-64.341-19.84-101.291-22.912-66.645-66.005-111.701-129.579-135.168-32.341-11.477-68.352-17.408-108.16-18.133 0-.256-12.843-.299-38.571-.299l-38.528.299c-28.672 0-45.525-13.653-50.645-41.131-.555-2.261-12.715-78.08-36.48-227.371-.341-2.816-2.048-4.352-5.163-4.352H207.103c-6.315 0-11.563 2.347-15.744 7.04-4.181 4.779-5.76 10.283-4.907 16.64l99.499 631.253c1.365 8.32 5.333 15.104 11.776 20.608 6.443 5.419 13.867 8.107 22.144 8.107h256.597c9.728 0 23.68-1.877 41.771-5.589 18.261-3.584 34.176-8.277 47.915-13.696 30.635-11.691 54.016-29.355 70.187-52.779 16.171-23.552 24.235-51.499 24.235-84.139z"/><glyph unicode="" glyph-name="bxl-periscope" d="M516.352 64c59.989 0 298.027 270.037 298.027 451.029C814.379 688.298 679.04 832 516.352 832c-171.392 0-306.688-143.616-306.688-316.971C209.621 334.08 447.659 64 516.352 64zm-47.915 644.907c15.488 3.883 31.829 5.931 48.768 5.931 96 0 178.603-81.621 178.603-187.648 0-95.488-82.603-177.109-179.029-177.109-107.051 0-189.611 81.621-189.611 177.109 0 44.672 14.421 84.48 39.339 116.181v-.939c0-39.851 32.213-71.509 72.021-71.509C478.336 570.838 512 603.52 512 643.328c0 29.397-17.92 54.656-43.52 65.707l-.043-.128z"/><glyph unicode="" glyph-name="bxl-pinterest" d="M511.573 874.667c-235.435 0-426.24-190.848-426.24-426.24 0-180.565 112.341-334.933 270.933-397.056-3.755 33.707-7.083 85.589 1.451 122.368 7.765 33.28 50.005 211.883 50.005 211.883s-12.757 25.557-12.757 63.317c0 59.221 34.347 103.467 77.141 103.467 36.395 0 53.931-27.307 53.931-60.032 0-36.608-23.296-91.264-35.285-141.952-10.027-42.411 21.291-77.013 63.104-77.013 75.733 0 134.016 79.872 134.016 195.2 0 102.059-73.344 173.397-178.048 173.397-121.301 0-192.512-90.965-192.512-184.96 0-36.608 14.123-75.904 31.744-97.28 3.456-4.224 3.968-7.893 2.944-12.203-3.243-13.44-10.453-42.411-11.819-48.341-1.877-7.808-6.187-9.472-14.293-5.717-53.205 24.789-86.485 102.613-86.485 165.163 0 134.443 97.664 257.92 281.643 257.92 147.883 0 262.784-105.344 262.784-246.187 0-146.944-92.629-265.088-221.184-265.088-43.221 0-83.797 22.4-97.707 48.896 0 0-21.376-81.365-26.581-101.291-9.6-37.035-35.584-83.456-52.949-111.787C425.302 28.8 467.67 22.144 511.617 22.144c235.392 0 426.24 190.848 426.24 426.24S746.966 874.667 511.574 874.667z"/><glyph unicode="" glyph-name="bxl-pinterest-alt" d="M216.619 556.501c0 33.195 5.803 64.555 17.237 93.824 11.52 29.312 27.435 55.04 47.829 76.885 20.437 21.845 43.648 40.747 70.144 56.704 26.453 16.043 54.869 27.989 85.419 36.011 30.421 7.979 61.44 11.989 93.227 11.989 48.597 0 93.824-10.283 135.765-30.763 41.771-20.437 75.776-50.219 102.016-89.344 26.197-39.04 39.211-83.2 39.211-132.437 0-29.525-2.901-58.411-8.832-86.656-5.888-28.288-15.019-55.595-27.563-81.621-12.629-26.155-27.904-49.152-46.165-68.992-18.176-19.797-40.405-35.627-66.901-47.531-26.496-11.819-55.552-17.792-87.253-17.792-20.864 0-41.685 4.907-62.251 14.763-20.565 9.813-35.328 23.296-44.203 40.576-3.115-11.989-7.381-29.312-13.056-51.968-5.461-22.613-9.131-37.205-10.752-43.819-1.707-6.571-4.864-17.536-9.472-32.725s-8.619-26.197-11.989-32.811c-3.371-6.528-8.235-16.128-14.677-28.757-6.485-12.629-13.653-24.576-21.248-35.755-7.723-11.179-17.28-24.533-28.672-39.893l-6.357-2.261-4.224 4.608c-4.565 48.341-6.912 77.269-6.912 86.827 0 28.288 3.371 60.032 10.027 95.275 6.528 35.2 16.853 79.445 30.72 132.651 13.867 53.163 21.803 84.437 23.936 93.696-9.771 19.925-14.72 45.952-14.72 77.952 0 25.557 7.979 49.493 23.979 72.021 16.043 22.443 36.309 33.664 60.885 33.664 18.816 0 33.408-6.229 43.861-18.731 10.496-12.459 15.616-28.16 15.616-47.317 0-20.309-6.741-49.707-20.309-88.149-13.568-38.485-20.309-67.2-20.309-86.272 0-19.328 6.912-35.499 20.736-48.171 13.824-12.757 30.677-19.157 50.304-19.157 16.896 0 32.555 3.84 47.104 11.563 14.549 7.637 26.581 18.133 36.224 31.275 9.685 13.269 18.389 27.861 25.856 43.904 7.552 16.043 13.44 32.981 17.536 51.029 4.096 18.005 7.253 35.115 9.216 51.2 2.091 16.171 2.987 31.445 2.987 45.952 0 53.205-16.896 94.677-50.475 124.373-33.749 29.696-77.696 44.459-131.755 44.459-61.483 0-112.896-19.883-154.069-59.776-41.216-39.765-61.952-90.325-61.952-151.637 0-13.525 2.048-26.581 5.931-39.211 3.797-12.587 7.936-22.613 12.416-30.037a1089.873 1089.873 0 0012.416-20.992c3.84-6.571 5.845-11.264 5.845-14.08 0-8.619-2.261-19.84-6.827-33.707-4.736-13.867-10.325-20.779-17.067-20.779-.64 0-3.285.469-7.893 1.451-15.701 4.608-29.653 13.227-41.771 25.813-12.117 12.629-21.547 27.221-28.117 43.605-6.528 16.469-11.563 33.067-15.019 49.877-4.053 16.811-5.632 33.195-5.632 49.195z"/><glyph unicode="" glyph-name="bxl-play-store" d="M552.704 464.384l126.165 126.165L271.36 819.584c-27.008 14.592-52.309 16.64-74.496.683l355.84-355.883zm147.669-147.712l131.157 73.771c25.6 14.336 39.637 34.645 39.637 57.173 0 22.485-14.037 42.837-39.595 57.173l-118.741 66.688-133.675-133.632 121.216-121.173zm-525.44 472.576c-2.731-8.405-4.267-17.792-4.267-28.075V133.76c0-16.256 3.584-30.251 10.069-41.387l345.472 345.515-351.275 351.36zm377.771-377.813L209.152 67.84c6.571-2.517 13.653-3.84 21.12-3.84 13.312 0 27.179 3.925 41.301 11.776l394.88 221.739-113.749 113.92z"/><glyph unicode="" glyph-name="bxl-pocket" d="M824.619 790.059H202.496c-40.405 0-74.069-30.976-74.069-71.381V488.449c0-208.725 172.373-382.464 385.109-382.464C724.949 105.985 896 279.724 896 488.449v230.229c0 40.405-32.341 71.381-71.381 71.381zm-92.928-285.483L548.523 332.203c-9.429-10.795-24.192-14.848-34.987-14.848-13.44 0-26.923 4.053-37.717 14.848L295.382 504.576c-18.816 20.181-21.504 53.845 0 75.435 20.267 18.816 53.888 21.504 74.069 0l144.085-138.709 146.773 138.709c18.816 21.504 52.48 18.816 71.381 0 18.859-21.589 18.859-55.253 0-75.435z"/><glyph unicode="" glyph-name="bxl-product-hunt" d="M569.045 576H447.957V448h121.088c35.371 0 64.043 28.672 64.043 64.043 0 35.285-28.629 63.957-64.043 63.957zM512 874.667C276.352 874.667 85.333 683.648 85.333 448S276.352 21.333 512 21.333 938.667 212.352 938.667 448 747.648 874.667 512 874.667zm57.045-512H447.957v-128h-85.248v426.667h206.379c82.475 0 149.291-66.816 149.291-149.291 0-82.56-66.816-149.376-149.333-149.376z"/><glyph unicode="" glyph-name="bxl-quora" d="M535.68 233.6c-26.624 52.352-57.771 105.173-118.656 105.173-11.563 0-23.296-1.963-33.92-6.699l-20.651 41.259c25.173 21.717 65.877 38.869 118.187 38.869 81.408 0 123.264-39.339 156.459-89.344 19.584 42.709 28.928 100.437 28.928 171.947 0 178.688-55.808 270.336-186.283 270.336-128.597 0-184.235-91.648-184.235-270.336 0-177.664 55.68-268.416 184.235-268.416 20.395 0 38.955 2.176 55.936 7.211zm31.872-62.336c-28.203-7.595-58.155-11.691-87.851-11.691-171.264 0-338.816 136.619-338.816 335.275C140.928 695.339 308.437 832 479.701 832c174.123 0 340.139-135.637 340.139-337.195 0-112.128-52.309-203.221-128.299-262.101 24.405-36.736 49.365-61.269 84.821-61.269 38.357 0 53.803 29.312 56.661 52.736h49.792C885.802 193.024 869.972 64 730.324 64c-84.864 0-129.493 48.896-163.072 106.496l.299.768z"/><glyph unicode="" glyph-name="bxl-react" d="M588.16 480.213c0-42.062-34.098-76.16-76.16-76.16s-76.16 34.098-76.16 76.16 34.098 76.16 76.16 76.16 76.16-34.098 76.16-76.16zM298.752 328.789l-16.853 4.309C156.715 364.714 84.907 418.474 84.907 480.383c0 61.952 71.851 115.669 196.992 147.285l16.853 4.267 4.736-16.683c12.672-43.648 28.843-86.272 48.469-127.275l3.627-7.595-3.627-7.595c-19.627-41.088-35.883-83.669-48.469-127.36l-4.736-16.64zm-24.619 260.054c-95.104-26.795-153.515-67.669-153.515-108.459 0-40.704 58.368-81.621 153.515-108.373 11.648 37.035 25.728 73.259 42.027 108.373a868.522 868.522 0 00-42.027 108.459zm451.072-260.054l-4.693 16.725c-12.715 43.691-28.885 86.272-48.512 127.317l-3.627 7.552L672 488.02c19.627 41.003 35.797 83.627 48.512 127.317l4.693 16.64 16.853-4.267c125.227-31.616 196.992-85.333 196.992-147.328 0-61.952-71.808-115.669-196.992-147.285l-16.853-4.309zm-17.493 151.595c17.067-36.949 31.275-73.301 42.112-108.373 95.147 26.752 153.557 67.669 153.557 108.373 0 40.789-58.368 81.621-153.557 108.459-11.648-37.035-25.685-73.259-42.112-108.459zM273.877 589.013l-4.693 16.64c-35.243 124.075-24.576 212.949 29.312 243.925 52.693 30.507 137.472-5.547 226.261-96.64l12.117-12.459-12.117-12.416c-31.531-32.811-60.373-68.096-86.187-105.557l-4.821-6.912-8.363-.683c-45.355-3.541-90.411-10.837-134.699-21.717l-16.811-4.181zm67.499 235.904c-9.557 0-18.005-2.091-25.131-6.187-35.328-20.352-41.557-91.221-17.237-186.88 38.016 8.405 76.373 14.421 115.029 17.792 22.4 31.787 46.805 61.995 73.088 90.581-55.595 54.059-108.075 84.693-145.749 84.693zm341.205-724.65c-50.688 0-115.797 38.229-183.381 107.605l-12.075 12.416 12.075 12.373c31.531 32.853 60.416 68.224 86.229 105.685l4.779 6.827 8.277.811a830.874 830.874 0 01134.741 21.632l16.853 4.267 4.736-16.683c35.072-123.989 24.448-212.992-29.355-243.968-13.013-7.381-27.776-11.179-42.88-10.965zm-145.706 120.32c55.552-54.059 108.075-84.736 145.707-84.736 9.6 0 18.048 2.133 25.131 6.187 35.371 20.395 41.643 91.392 17.237 187.051-37.973-8.448-76.373-14.507-115.115-17.877a875.715 875.715 0 00-72.96-90.624zM750.08 589.013l-16.853 4.224c-44.203 10.923-89.301 18.176-134.741 21.717l-8.277.725-4.779 6.912c-25.771 37.461-54.656 72.747-86.229 105.557l-12.075 12.416 12.075 12.373c88.747 91.051 173.483 127.104 226.261 96.64 53.845-31.019 64.555-119.893 29.355-243.925l-4.736-16.64zm-140.245 60.63c40.704-3.627 79.275-9.728 115.115-17.792 24.363 95.659 18.133 166.528-17.237 186.923-35.157 20.352-101.333-10.795-170.837-78.549 26.283-28.587 50.688-58.795 72.96-90.581zM341.376 100.267a84.612 84.612 0 00-42.88 10.965c-53.888 30.976-64.555 119.936-29.355 243.968l4.608 16.683 16.853-4.267c41.131-10.368 86.443-17.664 134.741-21.632l8.277-.811 4.821-6.827a838.053 838.053 0 0186.187-105.685l12.117-12.373-12.117-12.416c-67.541-69.419-132.651-107.605-183.253-107.605zm-42.368 228.778c-24.32-95.659-18.091-166.656 17.237-187.051 35.2-20.053 101.163 10.88 170.88 78.592a903.263 903.263 0 00-73.088 90.581c-38.656 3.371-77.056 9.429-115.029 17.877zM512 306.645c-29.312 0-59.392 1.237-89.6 3.755l-8.363.725-4.821 6.912a1096.586 1096.586 0 00-48.043 75.477 1110.319 1110.319 0 00-41.429 79.317l-3.584 7.552 3.584 7.637c12.757 26.965 26.539 53.419 41.429 79.275 14.805 25.429 30.976 50.859 48.043 75.52l4.821 6.827 8.363.768a1072.992 1072.992 0 00179.115 0l8.277-.811 4.821-6.827c34.091-49.024 64.128-100.779 89.6-154.795l3.541-7.637-3.541-7.552a1055.678 1055.678 0 00-89.6-154.795l-4.821-6.912-8.277-.725c-30.123-2.432-60.245-3.712-89.515-3.712zm-78.251 38.571c52.693-3.968 103.808-3.968 156.459 0 29.44 43.093 55.509 88.235 78.165 135.168a1020.42 1020.42 0 01-78.165 135.168 1018.683 1018.683 0 01-156.459 0c-29.397-42.965-55.68-88.107-78.165-135.168 22.656-46.933 48.853-92.075 78.165-135.168z"/><glyph unicode="" glyph-name="bxl-redbubble" d="M512.085 874.453l-.085.043c-235.52 0-426.496-190.933-426.496-426.453C85.504 212.48 276.523 21.462 512 21.462c235.563 0 426.496 190.933 426.496 426.539 0 235.52-190.933 426.453-426.411 426.453zm6.912-577.28c-2.005-1.792-4.651-2.773-7.424-2.816v-.043h-236.16c-6.229.043-11.349 5.12-11.349 11.435v285.355c0 6.315 5.077 11.435 11.349 11.435h110.464c68.779 0 109.909-37.12 109.909-99.285 0-41.344-20.736-73.771-54.272-86.997l78.592-102.955c4.139-4.736 3.627-11.989-1.109-16.128zm157.654-2.901H562.944c-6.229.043-11.349 5.12-11.349 11.477v285.355c0 6.315 5.077 11.392 11.349 11.392h105.472c79.061 0 95.659-46.549 95.659-85.632 0-22.571-6.016-40.491-17.963-53.675 29.056-11.947 44.672-38.955 44.672-77.952 0-56.96-42.709-90.965-114.133-90.965z"/></font>
</defs>
</svg>
